<svg width="179" height="179" viewBox="0 0 179 179" fill="none" xmlns="http://www.w3.org/2000/svg">
<g opacity="0.5">
<path d="M115.494 63.1178C107.859 55.4734 102.855 50.3446 103.101 50.4166C104.982 50.9665 104.845 50.8435 116.37 62.3609C127.388 73.371 127.408 73.3928 127.913 74.6054C128.192 75.2734 128.393 75.847 128.36 75.88C128.327 75.9129 122.537 70.1699 115.494 63.1178Z" fill="#615B56" fill-opacity="0.4"/>
<path d="M111.533 67.0897L92.2726 47.8102L93.1783 47.9082L94.084 48.0061L112.393 66.3146C129.847 83.7676 130.707 84.6556 130.807 85.3203C130.864 85.7038 130.885 86.0967 130.853 86.1934C130.82 86.2901 122.127 77.6935 111.533 67.0897Z" fill="#615B56" fill-opacity="0.4"/>
<path d="M107.589 71.103C86.8041 50.3148 84.2625 47.7182 84.6088 47.6255C84.8229 47.5682 85.147 47.5203 85.3289 47.519C85.5496 47.5176 93.2552 55.1124 108.46 70.3175L131.26 93.1182L131.11 93.7973L130.959 94.4763L107.589 71.103Z" fill="#615B56" fill-opacity="0.4"/>
<path d="M103.62 75.0668L77.2767 48.7228L77.936 48.5555L78.5953 48.3882L104.405 74.1985C131.232 101.026 130.444 100.199 130.078 101.123C129.988 101.349 124.343 95.7902 103.62 75.0668Z" fill="#615B56" fill-opacity="0.4"/>
<path d="M99.6364 79.0186C84.0457 63.4278 71.3238 50.6465 71.3655 50.6157C71.4073 50.5849 71.6596 50.4655 71.9265 50.3504L72.412 50.1411L100.488 78.217L128.564 106.293L128.361 106.829C128.25 107.124 128.119 107.366 128.071 107.366C128.023 107.366 115.227 94.6095 99.6364 79.0186Z" fill="#615B56" fill-opacity="0.4"/>
<path d="M95.6786 82.9965L65.854 53.1717L66.3987 52.89L66.9435 52.6083L96.5296 82.1945L126.116 111.781L125.847 112.301C125.699 112.587 125.561 112.821 125.54 112.821C125.52 112.821 112.082 99.4002 95.6786 82.9965Z" fill="#615B56" fill-opacity="0.4"/>
<path d="M91.7177 86.9753L61.0732 56.3266L61.5561 55.9828L62.0389 55.639L92.5713 86.1728L123.104 116.707L122.733 117.165L122.362 117.624L91.7177 86.9753Z" fill="#615B56" fill-opacity="0.4"/>
<path d="M87.759 90.9484L56.7969 59.986L57.223 59.5857L57.6491 59.1854L88.5984 90.1347L119.548 121.084L119.134 121.497L118.721 121.911L87.759 90.9484Z" fill="#615B56" fill-opacity="0.4"/>
<path d="M83.7992 94.9245C66.9544 78.0796 53.1724 64.216 53.1724 64.1165C53.1724 64.017 53.3248 63.7976 53.5112 63.6289C53.8473 63.3248 54.1061 63.5783 84.6342 94.1143L115.418 124.906L115.028 125.229C114.813 125.407 114.59 125.552 114.532 125.552C114.474 125.552 100.644 111.769 83.7992 94.9245Z" fill="#615B56" fill-opacity="0.4"/>
<path d="M79.8102 98.8712L49.8235 68.8842L50.1303 68.3647L50.4372 67.8453L80.6455 98.0532L110.854 128.261L110.363 128.56C110.093 128.724 109.855 128.858 109.834 128.858C109.814 128.858 96.3029 115.364 79.8102 98.8712Z" fill="#615B56" fill-opacity="0.4"/>
<path d="M75.7808 102.943C60.0727 87.2346 47.2206 74.2929 47.2206 74.1836C47.2206 74.0743 47.309 73.7909 47.417 73.5537C47.6102 73.1297 48.0914 73.6005 76.5938 102.103C104.116 129.624 105.556 131.093 105.206 131.287C105.003 131.4 104.726 131.494 104.589 131.498C104.453 131.502 91.489 118.651 75.7808 102.943Z" fill="#615B56" fill-opacity="0.4"/>
<path d="M71.7865 106.884L45.063 80.1604L45.2756 79.5464L45.4882 78.9323L72.6584 106.103L99.8285 133.273L99.1692 133.441L98.5099 133.608L71.7865 106.884Z" fill="#615B56" fill-opacity="0.4"/>
<path d="M67.8452 110.879C42.9763 86.0093 43.6857 86.7561 44.0514 85.8331C44.1411 85.6066 49.3943 90.7741 68.6909 110.071C90.5007 131.881 93.1734 134.609 92.8272 134.701C92.6131 134.759 92.289 134.807 92.107 134.808C91.8863 134.808 83.809 126.843 67.8452 110.879Z" fill="#615B56" fill-opacity="0.4"/>
<path d="M63.8667 114.836L43.728 94.6968L43.7796 93.9202L43.8313 93.1436L64.745 114.059L85.6588 134.975H84.8322H84.0055L63.8667 114.836Z" fill="#615B56" fill-opacity="0.4"/>
<path d="M74.9132 133.217C74.1379 132.984 73.2066 132.09 59.9294 118.823C45.8614 104.767 45.7704 104.672 45.478 103.706C45.3162 103.172 45.2174 102.701 45.2586 102.659C45.3 102.618 52.2864 109.538 60.7843 118.036C69.2822 126.534 76.1237 133.482 75.9874 133.476C75.8512 133.47 75.3678 133.353 74.9132 133.217Z" fill="#615B56" fill-opacity="0.4"/>
<path d="M60.6485 125.947C59.0383 124.684 57.9054 123.684 56.5162 122.298C55.4235 121.208 54.6437 120.359 53.7645 119.303C53.1315 118.543 52.3126 117.49 52.3364 117.466C52.3459 117.457 54.3683 119.464 56.8312 121.927C59.294 124.39 61.2905 126.404 61.2678 126.403C61.245 126.403 60.9665 126.197 60.6485 125.947Z" fill="#615B56" fill-opacity="0.4"/>
<path d="M72.6244 105.36C89.7428 122.478 117.497 122.478 134.616 105.36C151.734 88.2411 151.734 60.4867 134.616 43.3683C117.497 26.2499 89.7428 26.2499 72.6244 43.3683C55.506 60.4867 55.506 88.2411 72.6244 105.36Z" stroke="#597ED4" stroke-width="5" stroke-linecap="round"/>
</g>
</svg>
