<svg width="250" height="113" viewBox="0 0 250 113" fill="none" xmlns="http://www.w3.org/2000/svg">
<g clip-path="url(#clip0_13_716)">
<path d="M2.61043 5.037C3.95054 5.037 5.03691 3.95063 5.03691 2.61052C5.03691 1.27042 3.95054 0.184052 2.61043 0.184052C1.27033 0.184052 0.18396 1.27042 0.18396 2.61052C0.18396 3.95063 1.27033 5.037 2.61043 5.037Z" fill="#565B61" fill-opacity="0.4" stroke="#565B61" stroke-opacity="0.4" stroke-width="0.368105" stroke-linecap="round"/>
<path d="M23.0013 5.037C24.3414 5.037 25.4278 3.95063 25.4278 2.61052C25.4278 1.27042 24.3414 0.184052 23.0013 0.184052C21.6612 0.184052 20.5748 1.27042 20.5748 2.61052C20.5748 3.95063 21.6612 5.037 23.0013 5.037Z" fill="#565B61" fill-opacity="0.4" stroke="#565B61" stroke-opacity="0.4" stroke-width="0.368105" stroke-linecap="round"/>
<path d="M43.3922 5.037C44.7323 5.037 45.8186 3.95063 45.8186 2.61052C45.8186 1.27042 44.7323 0.184052 43.3922 0.184052C42.0521 0.184052 40.9657 1.27042 40.9657 2.61052C40.9657 3.95063 42.0521 5.037 43.3922 5.037Z" fill="#565B61" fill-opacity="0.4" stroke="#565B61" stroke-opacity="0.4" stroke-width="0.368105" stroke-linecap="round"/>
<path d="M63.7832 5.037C65.1233 5.037 66.2096 3.95063 66.2096 2.61052C66.2096 1.27042 65.1233 0.184052 63.7832 0.184052C62.4431 0.184052 61.3567 1.27042 61.3567 2.61052C61.3567 3.95063 62.4431 5.037 63.7832 5.037Z" fill="#565B61" fill-opacity="0.4" stroke="#565B61" stroke-opacity="0.4" stroke-width="0.368105" stroke-linecap="round"/>
<path d="M84.174 5.037C85.5141 5.037 86.6005 3.95063 86.6005 2.61052C86.6005 1.27042 85.5141 0.184052 84.174 0.184052C82.8339 0.184052 81.7476 1.27042 81.7476 2.61052C81.7476 3.95063 82.8339 5.037 84.174 5.037Z" fill="#565B61" fill-opacity="0.4" stroke="#565B61" stroke-opacity="0.4" stroke-width="0.368105" stroke-linecap="round"/>
<path d="M104.565 5.037C105.905 5.037 106.991 3.95063 106.991 2.61052C106.991 1.27042 105.905 0.184052 104.565 0.184052C103.225 0.184052 102.138 1.27042 102.138 2.61052C102.138 3.95063 103.225 5.037 104.565 5.037Z" fill="#565B61" fill-opacity="0.4" stroke="#565B61" stroke-opacity="0.4" stroke-width="0.368105" stroke-linecap="round"/>
<path d="M124.956 5.037C126.296 5.037 127.382 3.95063 127.382 2.61052C127.382 1.27042 126.296 0.184052 124.956 0.184052C123.616 0.184052 122.529 1.27042 122.529 2.61052C122.529 3.95063 123.616 5.037 124.956 5.037Z" fill="#565B61" fill-opacity="0.4" stroke="#565B61" stroke-opacity="0.4" stroke-width="0.368105" stroke-linecap="round"/>
<path d="M145.347 5.037C146.687 5.037 147.773 3.95063 147.773 2.61052C147.773 1.27042 146.687 0.184052 145.347 0.184052C144.007 0.184052 142.92 1.27042 142.92 2.61052C142.92 3.95063 144.007 5.037 145.347 5.037Z" fill="#565B61" fill-opacity="0.4" stroke="#565B61" stroke-opacity="0.4" stroke-width="0.368105" stroke-linecap="round"/>
<path d="M165.738 5.037C167.078 5.037 168.164 3.95063 168.164 2.61052C168.164 1.27042 167.078 0.184052 165.738 0.184052C164.397 0.184052 163.311 1.27042 163.311 2.61052C163.311 3.95063 164.397 5.037 165.738 5.037Z" fill="#565B61" fill-opacity="0.4" stroke="#565B61" stroke-opacity="0.4" stroke-width="0.368105" stroke-linecap="round"/>
<path d="M186.128 5.037C187.468 5.037 188.555 3.95063 188.555 2.61052C188.555 1.27042 187.468 0.184052 186.128 0.184052C184.788 0.184052 183.702 1.27042 183.702 2.61052C183.702 3.95063 184.788 5.037 186.128 5.037Z" fill="#565B61" fill-opacity="0.4" stroke="#565B61" stroke-opacity="0.4" stroke-width="0.368105" stroke-linecap="round"/>
<path d="M206.519 5.037C207.859 5.037 208.946 3.95063 208.946 2.61052C208.946 1.27042 207.859 0.184052 206.519 0.184052C205.179 0.184052 204.093 1.27042 204.093 2.61052C204.093 3.95063 205.179 5.037 206.519 5.037Z" fill="#565B61" fill-opacity="0.4" stroke="#565B61" stroke-opacity="0.4" stroke-width="0.368105" stroke-linecap="round"/>
<path d="M226.91 5.037C228.25 5.037 229.337 3.95063 229.337 2.61052C229.337 1.27042 228.25 0.184052 226.91 0.184052C225.57 0.184052 224.484 1.27042 224.484 2.61052C224.484 3.95063 225.57 5.037 226.91 5.037Z" fill="#565B61" fill-opacity="0.4" stroke="#565B61" stroke-opacity="0.4" stroke-width="0.368105" stroke-linecap="round"/>
<path d="M247.301 5.037C248.641 5.037 249.727 3.95063 249.727 2.61052C249.727 1.27042 248.641 0.184052 247.301 0.184052C245.961 0.184052 244.875 1.27042 244.875 2.61052C244.875 3.95063 245.961 5.037 247.301 5.037Z" fill="#565B61" fill-opacity="0.4" stroke="#565B61" stroke-opacity="0.4" stroke-width="0.368105" stroke-linecap="round"/>
<path d="M2.61043 20.351C3.95054 20.351 5.03691 19.2646 5.03691 17.9245C5.03691 16.5844 3.95054 15.498 2.61043 15.498C1.27033 15.498 0.18396 16.5844 0.18396 17.9245C0.18396 19.2646 1.27033 20.351 2.61043 20.351Z" fill="#565B61" fill-opacity="0.4" stroke="#565B61" stroke-opacity="0.4" stroke-width="0.368105" stroke-linecap="round"/>
<path d="M23.0013 20.351C24.3414 20.351 25.4278 19.2646 25.4278 17.9245C25.4278 16.5844 24.3414 15.498 23.0013 15.498C21.6612 15.498 20.5748 16.5844 20.5748 17.9245C20.5748 19.2646 21.6612 20.351 23.0013 20.351Z" fill="#565B61" fill-opacity="0.4" stroke="#565B61" stroke-opacity="0.4" stroke-width="0.368105" stroke-linecap="round"/>
<path d="M43.3922 20.351C44.7323 20.351 45.8186 19.2646 45.8186 17.9245C45.8186 16.5844 44.7323 15.498 43.3922 15.498C42.0521 15.498 40.9657 16.5844 40.9657 17.9245C40.9657 19.2646 42.0521 20.351 43.3922 20.351Z" fill="#565B61" fill-opacity="0.4" stroke="#565B61" stroke-opacity="0.4" stroke-width="0.368105" stroke-linecap="round"/>
<path d="M63.7832 20.351C65.1233 20.351 66.2096 19.2646 66.2096 17.9245C66.2096 16.5844 65.1233 15.498 63.7832 15.498C62.4431 15.498 61.3567 16.5844 61.3567 17.9245C61.3567 19.2646 62.4431 20.351 63.7832 20.351Z" fill="#565B61" fill-opacity="0.4" stroke="#565B61" stroke-opacity="0.4" stroke-width="0.368105" stroke-linecap="round"/>
<path d="M84.174 20.351C85.5141 20.351 86.6005 19.2646 86.6005 17.9245C86.6005 16.5844 85.5141 15.498 84.174 15.498C82.8339 15.498 81.7476 16.5844 81.7476 17.9245C81.7476 19.2646 82.8339 20.351 84.174 20.351Z" fill="#565B61" fill-opacity="0.4" stroke="#565B61" stroke-opacity="0.4" stroke-width="0.368105" stroke-linecap="round"/>
<path d="M104.565 20.351C105.905 20.351 106.991 19.2646 106.991 17.9245C106.991 16.5844 105.905 15.498 104.565 15.498C103.225 15.498 102.138 16.5844 102.138 17.9245C102.138 19.2646 103.225 20.351 104.565 20.351Z" fill="#565B61" fill-opacity="0.4" stroke="#565B61" stroke-opacity="0.4" stroke-width="0.368105" stroke-linecap="round"/>
<path d="M124.956 20.351C126.296 20.351 127.382 19.2646 127.382 17.9245C127.382 16.5844 126.296 15.498 124.956 15.498C123.616 15.498 122.529 16.5844 122.529 17.9245C122.529 19.2646 123.616 20.351 124.956 20.351Z" fill="#565B61" fill-opacity="0.4" stroke="#565B61" stroke-opacity="0.4" stroke-width="0.368105" stroke-linecap="round"/>
<path d="M145.347 20.351C146.687 20.351 147.773 19.2646 147.773 17.9245C147.773 16.5844 146.687 15.498 145.347 15.498C144.007 15.498 142.92 16.5844 142.92 17.9245C142.92 19.2646 144.007 20.351 145.347 20.351Z" fill="#565B61" fill-opacity="0.4" stroke="#565B61" stroke-opacity="0.4" stroke-width="0.368105" stroke-linecap="round"/>
<path d="M165.738 20.351C167.078 20.351 168.164 19.2646 168.164 17.9245C168.164 16.5844 167.078 15.498 165.738 15.498C164.397 15.498 163.311 16.5844 163.311 17.9245C163.311 19.2646 164.397 20.351 165.738 20.351Z" fill="#565B61" fill-opacity="0.4" stroke="#565B61" stroke-opacity="0.4" stroke-width="0.368105" stroke-linecap="round"/>
<path d="M186.128 20.351C187.468 20.351 188.555 19.2646 188.555 17.9245C188.555 16.5844 187.468 15.498 186.128 15.498C184.788 15.498 183.702 16.5844 183.702 17.9245C183.702 19.2646 184.788 20.351 186.128 20.351Z" fill="#565B61" fill-opacity="0.4" stroke="#565B61" stroke-opacity="0.4" stroke-width="0.368105" stroke-linecap="round"/>
<path d="M206.519 20.351C207.859 20.351 208.946 19.2646 208.946 17.9245C208.946 16.5844 207.859 15.498 206.519 15.498C205.179 15.498 204.093 16.5844 204.093 17.9245C204.093 19.2646 205.179 20.351 206.519 20.351Z" fill="#565B61" fill-opacity="0.4" stroke="#565B61" stroke-opacity="0.4" stroke-width="0.368105" stroke-linecap="round"/>
<path d="M226.91 20.351C228.25 20.351 229.337 19.2646 229.337 17.9245C229.337 16.5844 228.25 15.498 226.91 15.498C225.57 15.498 224.484 16.5844 224.484 17.9245C224.484 19.2646 225.57 20.351 226.91 20.351Z" fill="#565B61" fill-opacity="0.4" stroke="#565B61" stroke-opacity="0.4" stroke-width="0.368105" stroke-linecap="round"/>
<path d="M247.301 20.351C248.641 20.351 249.727 19.2646 249.727 17.9245C249.727 16.5844 248.641 15.498 247.301 15.498C245.961 15.498 244.875 16.5844 244.875 17.9245C244.875 19.2646 245.961 20.351 247.301 20.351Z" fill="#565B61" fill-opacity="0.4" stroke="#565B61" stroke-opacity="0.4" stroke-width="0.368105" stroke-linecap="round"/>
<path d="M2.61043 35.665C3.95054 35.665 5.03691 34.5786 5.03691 33.2385C5.03691 31.8984 3.95054 30.812 2.61043 30.812C1.27033 30.812 0.18396 31.8984 0.18396 33.2385C0.18396 34.5786 1.27033 35.665 2.61043 35.665Z" fill="#565B61" fill-opacity="0.4" stroke="#565B61" stroke-opacity="0.4" stroke-width="0.368105" stroke-linecap="round"/>
<path d="M23.0013 35.665C24.3414 35.665 25.4278 34.5786 25.4278 33.2385C25.4278 31.8984 24.3414 30.812 23.0013 30.812C21.6612 30.812 20.5748 31.8984 20.5748 33.2385C20.5748 34.5786 21.6612 35.665 23.0013 35.665Z" fill="#565B61" fill-opacity="0.4" stroke="#565B61" stroke-opacity="0.4" stroke-width="0.368105" stroke-linecap="round"/>
<path d="M43.3922 35.665C44.7323 35.665 45.8186 34.5786 45.8186 33.2385C45.8186 31.8984 44.7323 30.812 43.3922 30.812C42.0521 30.812 40.9657 31.8984 40.9657 33.2385C40.9657 34.5786 42.0521 35.665 43.3922 35.665Z" fill="#565B61" fill-opacity="0.4" stroke="#565B61" stroke-opacity="0.4" stroke-width="0.368105" stroke-linecap="round"/>
<path d="M63.7832 35.665C65.1233 35.665 66.2096 34.5786 66.2096 33.2385C66.2096 31.8984 65.1233 30.812 63.7832 30.812C62.4431 30.812 61.3567 31.8984 61.3567 33.2385C61.3567 34.5786 62.4431 35.665 63.7832 35.665Z" fill="#565B61" fill-opacity="0.4" stroke="#565B61" stroke-opacity="0.4" stroke-width="0.368105" stroke-linecap="round"/>
<path d="M84.174 35.665C85.5141 35.665 86.6005 34.5786 86.6005 33.2385C86.6005 31.8984 85.5141 30.812 84.174 30.812C82.8339 30.812 81.7476 31.8984 81.7476 33.2385C81.7476 34.5786 82.8339 35.665 84.174 35.665Z" fill="#565B61" fill-opacity="0.4" stroke="#565B61" stroke-opacity="0.4" stroke-width="0.368105" stroke-linecap="round"/>
<path d="M104.565 35.665C105.905 35.665 106.991 34.5786 106.991 33.2385C106.991 31.8984 105.905 30.812 104.565 30.812C103.225 30.812 102.138 31.8984 102.138 33.2385C102.138 34.5786 103.225 35.665 104.565 35.665Z" fill="#565B61" fill-opacity="0.4" stroke="#565B61" stroke-opacity="0.4" stroke-width="0.368105" stroke-linecap="round"/>
<path d="M124.956 35.665C126.296 35.665 127.382 34.5786 127.382 33.2385C127.382 31.8984 126.296 30.812 124.956 30.812C123.616 30.812 122.529 31.8984 122.529 33.2385C122.529 34.5786 123.616 35.665 124.956 35.665Z" fill="#565B61" fill-opacity="0.4" stroke="#565B61" stroke-opacity="0.4" stroke-width="0.368105" stroke-linecap="round"/>
<path d="M145.347 35.665C146.687 35.665 147.773 34.5786 147.773 33.2385C147.773 31.8984 146.687 30.812 145.347 30.812C144.007 30.812 142.92 31.8984 142.92 33.2385C142.92 34.5786 144.007 35.665 145.347 35.665Z" fill="#565B61" fill-opacity="0.4" stroke="#565B61" stroke-opacity="0.4" stroke-width="0.368105" stroke-linecap="round"/>
<path d="M165.738 35.665C167.078 35.665 168.164 34.5786 168.164 33.2385C168.164 31.8984 167.078 30.812 165.738 30.812C164.397 30.812 163.311 31.8984 163.311 33.2385C163.311 34.5786 164.397 35.665 165.738 35.665Z" fill="#565B61" fill-opacity="0.4" stroke="#565B61" stroke-opacity="0.4" stroke-width="0.368105" stroke-linecap="round"/>
<path d="M186.128 35.665C187.468 35.665 188.555 34.5786 188.555 33.2385C188.555 31.8984 187.468 30.812 186.128 30.812C184.788 30.812 183.702 31.8984 183.702 33.2385C183.702 34.5786 184.788 35.665 186.128 35.665Z" fill="#565B61" fill-opacity="0.4" stroke="#565B61" stroke-opacity="0.4" stroke-width="0.368105" stroke-linecap="round"/>
<path d="M206.519 35.665C207.859 35.665 208.946 34.5786 208.946 33.2385C208.946 31.8984 207.859 30.812 206.519 30.812C205.179 30.812 204.093 31.8984 204.093 33.2385C204.093 34.5786 205.179 35.665 206.519 35.665Z" fill="#565B61" fill-opacity="0.4" stroke="#565B61" stroke-opacity="0.4" stroke-width="0.368105" stroke-linecap="round"/>
<path d="M226.91 35.665C228.25 35.665 229.337 34.5786 229.337 33.2385C229.337 31.8984 228.25 30.812 226.91 30.812C225.57 30.812 224.484 31.8984 224.484 33.2385C224.484 34.5786 225.57 35.665 226.91 35.665Z" fill="#565B61" fill-opacity="0.4" stroke="#565B61" stroke-opacity="0.4" stroke-width="0.368105" stroke-linecap="round"/>
<path d="M247.301 35.665C248.641 35.665 249.727 34.5786 249.727 33.2385C249.727 31.8984 248.641 30.812 247.301 30.812C245.961 30.812 244.875 31.8984 244.875 33.2385C244.875 34.5786 245.961 35.665 247.301 35.665Z" fill="#565B61" fill-opacity="0.4" stroke="#565B61" stroke-opacity="0.4" stroke-width="0.368105" stroke-linecap="round"/>
<path d="M2.61043 50.979C3.95054 50.979 5.03691 49.8926 5.03691 48.5525C5.03691 47.2124 3.95054 46.126 2.61043 46.126C1.27033 46.126 0.18396 47.2124 0.18396 48.5525C0.18396 49.8926 1.27033 50.979 2.61043 50.979Z" fill="#565B61" fill-opacity="0.4" stroke="#565B61" stroke-opacity="0.4" stroke-width="0.368105" stroke-linecap="round"/>
<path d="M23.0013 50.979C24.3414 50.979 25.4278 49.8926 25.4278 48.5525C25.4278 47.2124 24.3414 46.126 23.0013 46.126C21.6612 46.126 20.5748 47.2124 20.5748 48.5525C20.5748 49.8926 21.6612 50.979 23.0013 50.979Z" fill="#565B61" fill-opacity="0.4" stroke="#565B61" stroke-opacity="0.4" stroke-width="0.368105" stroke-linecap="round"/>
<path d="M43.3922 50.979C44.7323 50.979 45.8186 49.8926 45.8186 48.5525C45.8186 47.2124 44.7323 46.126 43.3922 46.126C42.0521 46.126 40.9657 47.2124 40.9657 48.5525C40.9657 49.8926 42.0521 50.979 43.3922 50.979Z" fill="#565B61" fill-opacity="0.4" stroke="#565B61" stroke-opacity="0.4" stroke-width="0.368105" stroke-linecap="round"/>
<path d="M63.7832 50.979C65.1233 50.979 66.2096 49.8926 66.2096 48.5525C66.2096 47.2124 65.1233 46.126 63.7832 46.126C62.4431 46.126 61.3567 47.2124 61.3567 48.5525C61.3567 49.8926 62.4431 50.979 63.7832 50.979Z" fill="#565B61" fill-opacity="0.4" stroke="#565B61" stroke-opacity="0.4" stroke-width="0.368105" stroke-linecap="round"/>
<path d="M84.174 50.979C85.5141 50.979 86.6005 49.8926 86.6005 48.5525C86.6005 47.2124 85.5141 46.126 84.174 46.126C82.8339 46.126 81.7476 47.2124 81.7476 48.5525C81.7476 49.8926 82.8339 50.979 84.174 50.979Z" fill="#565B61" fill-opacity="0.4" stroke="#565B61" stroke-opacity="0.4" stroke-width="0.368105" stroke-linecap="round"/>
<path d="M104.565 50.979C105.905 50.979 106.991 49.8926 106.991 48.5525C106.991 47.2124 105.905 46.126 104.565 46.126C103.225 46.126 102.138 47.2124 102.138 48.5525C102.138 49.8926 103.225 50.979 104.565 50.979Z" fill="#565B61" fill-opacity="0.4" stroke="#565B61" stroke-opacity="0.4" stroke-width="0.368105" stroke-linecap="round"/>
<path d="M124.956 50.979C126.296 50.979 127.382 49.8926 127.382 48.5525C127.382 47.2124 126.296 46.126 124.956 46.126C123.616 46.126 122.529 47.2124 122.529 48.5525C122.529 49.8926 123.616 50.979 124.956 50.979Z" fill="#565B61" fill-opacity="0.4" stroke="#565B61" stroke-opacity="0.4" stroke-width="0.368105" stroke-linecap="round"/>
<path d="M145.347 50.979C146.687 50.979 147.773 49.8926 147.773 48.5525C147.773 47.2124 146.687 46.126 145.347 46.126C144.007 46.126 142.92 47.2124 142.92 48.5525C142.92 49.8926 144.007 50.979 145.347 50.979Z" fill="#565B61" fill-opacity="0.4" stroke="#565B61" stroke-opacity="0.4" stroke-width="0.368105" stroke-linecap="round"/>
<path d="M165.738 50.979C167.078 50.979 168.164 49.8926 168.164 48.5525C168.164 47.2124 167.078 46.126 165.738 46.126C164.397 46.126 163.311 47.2124 163.311 48.5525C163.311 49.8926 164.397 50.979 165.738 50.979Z" fill="#565B61" fill-opacity="0.4" stroke="#565B61" stroke-opacity="0.4" stroke-width="0.368105" stroke-linecap="round"/>
<path d="M186.128 50.979C187.468 50.979 188.555 49.8926 188.555 48.5525C188.555 47.2124 187.468 46.126 186.128 46.126C184.788 46.126 183.702 47.2124 183.702 48.5525C183.702 49.8926 184.788 50.979 186.128 50.979Z" fill="#565B61" fill-opacity="0.4" stroke="#565B61" stroke-opacity="0.4" stroke-width="0.368105" stroke-linecap="round"/>
<path d="M206.519 50.979C207.859 50.979 208.946 49.8926 208.946 48.5525C208.946 47.2124 207.859 46.126 206.519 46.126C205.179 46.126 204.093 47.2124 204.093 48.5525C204.093 49.8926 205.179 50.979 206.519 50.979Z" fill="#565B61" fill-opacity="0.4" stroke="#565B61" stroke-opacity="0.4" stroke-width="0.368105" stroke-linecap="round"/>
<path d="M226.91 50.979C228.25 50.979 229.337 49.8926 229.337 48.5525C229.337 47.2124 228.25 46.126 226.91 46.126C225.57 46.126 224.484 47.2124 224.484 48.5525C224.484 49.8926 225.57 50.979 226.91 50.979Z" fill="#565B61" fill-opacity="0.4" stroke="#565B61" stroke-opacity="0.4" stroke-width="0.368105" stroke-linecap="round"/>
<path d="M247.301 50.979C248.641 50.979 249.727 49.8926 249.727 48.5525C249.727 47.2124 248.641 46.126 247.301 46.126C245.961 46.126 244.875 47.2124 244.875 48.5525C244.875 49.8926 245.961 50.979 247.301 50.979Z" fill="#565B61" fill-opacity="0.4" stroke="#565B61" stroke-opacity="0.4" stroke-width="0.368105" stroke-linecap="round"/>
<path d="M2.61043 66.293C3.95054 66.293 5.03691 65.2066 5.03691 63.8665C5.03691 62.5264 3.95054 61.44 2.61043 61.44C1.27033 61.44 0.18396 62.5264 0.18396 63.8665C0.18396 65.2066 1.27033 66.293 2.61043 66.293Z" fill="#565B61" fill-opacity="0.4" stroke="#565B61" stroke-opacity="0.4" stroke-width="0.368105" stroke-linecap="round"/>
<path d="M23.0013 66.293C24.3414 66.293 25.4278 65.2066 25.4278 63.8665C25.4278 62.5264 24.3414 61.44 23.0013 61.44C21.6612 61.44 20.5748 62.5264 20.5748 63.8665C20.5748 65.2066 21.6612 66.293 23.0013 66.293Z" fill="#565B61" fill-opacity="0.4" stroke="#565B61" stroke-opacity="0.4" stroke-width="0.368105" stroke-linecap="round"/>
<path d="M43.3922 66.293C44.7323 66.293 45.8186 65.2066 45.8186 63.8665C45.8186 62.5264 44.7323 61.44 43.3922 61.44C42.0521 61.44 40.9657 62.5264 40.9657 63.8665C40.9657 65.2066 42.0521 66.293 43.3922 66.293Z" fill="#565B61" fill-opacity="0.4" stroke="#565B61" stroke-opacity="0.4" stroke-width="0.368105" stroke-linecap="round"/>
<path d="M63.7832 66.293C65.1233 66.293 66.2096 65.2066 66.2096 63.8665C66.2096 62.5264 65.1233 61.44 63.7832 61.44C62.4431 61.44 61.3567 62.5264 61.3567 63.8665C61.3567 65.2066 62.4431 66.293 63.7832 66.293Z" fill="#565B61" fill-opacity="0.4" stroke="#565B61" stroke-opacity="0.4" stroke-width="0.368105" stroke-linecap="round"/>
<path d="M84.174 66.293C85.5141 66.293 86.6005 65.2066 86.6005 63.8665C86.6005 62.5264 85.5141 61.44 84.174 61.44C82.8339 61.44 81.7476 62.5264 81.7476 63.8665C81.7476 65.2066 82.8339 66.293 84.174 66.293Z" fill="#565B61" fill-opacity="0.4" stroke="#565B61" stroke-opacity="0.4" stroke-width="0.368105" stroke-linecap="round"/>
<path d="M104.565 66.293C105.905 66.293 106.991 65.2066 106.991 63.8665C106.991 62.5264 105.905 61.44 104.565 61.44C103.225 61.44 102.138 62.5264 102.138 63.8665C102.138 65.2066 103.225 66.293 104.565 66.293Z" fill="#565B61" fill-opacity="0.4" stroke="#565B61" stroke-opacity="0.4" stroke-width="0.368105" stroke-linecap="round"/>
<path d="M124.956 66.293C126.296 66.293 127.382 65.2066 127.382 63.8665C127.382 62.5264 126.296 61.44 124.956 61.44C123.616 61.44 122.529 62.5264 122.529 63.8665C122.529 65.2066 123.616 66.293 124.956 66.293Z" fill="#565B61" fill-opacity="0.4" stroke="#565B61" stroke-opacity="0.4" stroke-width="0.368105" stroke-linecap="round"/>
<path d="M145.347 66.293C146.687 66.293 147.773 65.2066 147.773 63.8665C147.773 62.5264 146.687 61.44 145.347 61.44C144.007 61.44 142.92 62.5264 142.92 63.8665C142.92 65.2066 144.007 66.293 145.347 66.293Z" fill="#565B61" fill-opacity="0.4" stroke="#565B61" stroke-opacity="0.4" stroke-width="0.368105" stroke-linecap="round"/>
<path d="M165.738 66.293C167.078 66.293 168.164 65.2066 168.164 63.8665C168.164 62.5264 167.078 61.44 165.738 61.44C164.397 61.44 163.311 62.5264 163.311 63.8665C163.311 65.2066 164.397 66.293 165.738 66.293Z" fill="#565B61" fill-opacity="0.4" stroke="#565B61" stroke-opacity="0.4" stroke-width="0.368105" stroke-linecap="round"/>
<path d="M186.128 66.293C187.468 66.293 188.555 65.2066 188.555 63.8665C188.555 62.5264 187.468 61.44 186.128 61.44C184.788 61.44 183.702 62.5264 183.702 63.8665C183.702 65.2066 184.788 66.293 186.128 66.293Z" fill="#565B61" fill-opacity="0.4" stroke="#565B61" stroke-opacity="0.4" stroke-width="0.368105" stroke-linecap="round"/>
<path d="M206.519 66.293C207.859 66.293 208.946 65.2066 208.946 63.8665C208.946 62.5264 207.859 61.44 206.519 61.44C205.179 61.44 204.093 62.5264 204.093 63.8665C204.093 65.2066 205.179 66.293 206.519 66.293Z" fill="#565B61" fill-opacity="0.4" stroke="#565B61" stroke-opacity="0.4" stroke-width="0.368105" stroke-linecap="round"/>
<path d="M226.91 66.293C228.25 66.293 229.337 65.2066 229.337 63.8665C229.337 62.5264 228.25 61.44 226.91 61.44C225.57 61.44 224.484 62.5264 224.484 63.8665C224.484 65.2066 225.57 66.293 226.91 66.293Z" fill="#565B61" fill-opacity="0.4" stroke="#565B61" stroke-opacity="0.4" stroke-width="0.368105" stroke-linecap="round"/>
<path d="M247.301 66.293C248.641 66.293 249.727 65.2066 249.727 63.8665C249.727 62.5264 248.641 61.44 247.301 61.44C245.961 61.44 244.875 62.5264 244.875 63.8665C244.875 65.2066 245.961 66.293 247.301 66.293Z" fill="#565B61" fill-opacity="0.4" stroke="#565B61" stroke-opacity="0.4" stroke-width="0.368105" stroke-linecap="round"/>
<path d="M2.61043 81.6069C3.95054 81.6069 5.03691 80.5206 5.03691 79.1805C5.03691 77.8404 3.95054 76.754 2.61043 76.754C1.27033 76.754 0.18396 77.8404 0.18396 79.1805C0.18396 80.5206 1.27033 81.6069 2.61043 81.6069Z" fill="#565B61" fill-opacity="0.4" stroke="#565B61" stroke-opacity="0.4" stroke-width="0.368105" stroke-linecap="round"/>
<path d="M23.0013 81.6069C24.3414 81.6069 25.4278 80.5206 25.4278 79.1805C25.4278 77.8404 24.3414 76.754 23.0013 76.754C21.6612 76.754 20.5748 77.8404 20.5748 79.1805C20.5748 80.5206 21.6612 81.6069 23.0013 81.6069Z" fill="#565B61" fill-opacity="0.4" stroke="#565B61" stroke-opacity="0.4" stroke-width="0.368105" stroke-linecap="round"/>
<path d="M43.3922 81.6069C44.7323 81.6069 45.8186 80.5206 45.8186 79.1805C45.8186 77.8404 44.7323 76.754 43.3922 76.754C42.0521 76.754 40.9657 77.8404 40.9657 79.1805C40.9657 80.5206 42.0521 81.6069 43.3922 81.6069Z" fill="#565B61" fill-opacity="0.4" stroke="#565B61" stroke-opacity="0.4" stroke-width="0.368105" stroke-linecap="round"/>
<path d="M63.7832 81.6069C65.1233 81.6069 66.2096 80.5206 66.2096 79.1805C66.2096 77.8404 65.1233 76.754 63.7832 76.754C62.4431 76.754 61.3567 77.8404 61.3567 79.1805C61.3567 80.5206 62.4431 81.6069 63.7832 81.6069Z" fill="#565B61" fill-opacity="0.4" stroke="#565B61" stroke-opacity="0.4" stroke-width="0.368105" stroke-linecap="round"/>
<path d="M84.174 81.6069C85.5141 81.6069 86.6005 80.5206 86.6005 79.1805C86.6005 77.8404 85.5141 76.754 84.174 76.754C82.8339 76.754 81.7476 77.8404 81.7476 79.1805C81.7476 80.5206 82.8339 81.6069 84.174 81.6069Z" fill="#565B61" fill-opacity="0.4" stroke="#565B61" stroke-opacity="0.4" stroke-width="0.368105" stroke-linecap="round"/>
<path d="M104.565 81.6069C105.905 81.6069 106.991 80.5206 106.991 79.1805C106.991 77.8404 105.905 76.754 104.565 76.754C103.225 76.754 102.138 77.8404 102.138 79.1805C102.138 80.5206 103.225 81.6069 104.565 81.6069Z" fill="#565B61" fill-opacity="0.4" stroke="#565B61" stroke-opacity="0.4" stroke-width="0.368105" stroke-linecap="round"/>
<path d="M124.956 81.6069C126.296 81.6069 127.382 80.5206 127.382 79.1805C127.382 77.8404 126.296 76.754 124.956 76.754C123.616 76.754 122.529 77.8404 122.529 79.1805C122.529 80.5206 123.616 81.6069 124.956 81.6069Z" fill="#565B61" fill-opacity="0.4" stroke="#565B61" stroke-opacity="0.4" stroke-width="0.368105" stroke-linecap="round"/>
<path d="M145.347 81.6069C146.687 81.6069 147.773 80.5206 147.773 79.1805C147.773 77.8404 146.687 76.754 145.347 76.754C144.007 76.754 142.92 77.8404 142.92 79.1805C142.92 80.5206 144.007 81.6069 145.347 81.6069Z" fill="#565B61" fill-opacity="0.4" stroke="#565B61" stroke-opacity="0.4" stroke-width="0.368105" stroke-linecap="round"/>
<path d="M165.738 81.6069C167.078 81.6069 168.164 80.5206 168.164 79.1805C168.164 77.8404 167.078 76.754 165.738 76.754C164.397 76.754 163.311 77.8404 163.311 79.1805C163.311 80.5206 164.397 81.6069 165.738 81.6069Z" fill="#565B61" fill-opacity="0.4" stroke="#565B61" stroke-opacity="0.4" stroke-width="0.368105" stroke-linecap="round"/>
<path d="M186.128 81.6069C187.468 81.6069 188.555 80.5206 188.555 79.1805C188.555 77.8404 187.468 76.754 186.128 76.754C184.788 76.754 183.702 77.8404 183.702 79.1805C183.702 80.5206 184.788 81.6069 186.128 81.6069Z" fill="#565B61" fill-opacity="0.4" stroke="#565B61" stroke-opacity="0.4" stroke-width="0.368105" stroke-linecap="round"/>
<path d="M206.519 81.6069C207.859 81.6069 208.946 80.5206 208.946 79.1805C208.946 77.8404 207.859 76.754 206.519 76.754C205.179 76.754 204.093 77.8404 204.093 79.1805C204.093 80.5206 205.179 81.6069 206.519 81.6069Z" fill="#565B61" fill-opacity="0.4" stroke="#565B61" stroke-opacity="0.4" stroke-width="0.368105" stroke-linecap="round"/>
<path d="M226.91 81.6069C228.25 81.6069 229.337 80.5206 229.337 79.1805C229.337 77.8404 228.25 76.754 226.91 76.754C225.57 76.754 224.484 77.8404 224.484 79.1805C224.484 80.5206 225.57 81.6069 226.91 81.6069Z" fill="#565B61" fill-opacity="0.4" stroke="#565B61" stroke-opacity="0.4" stroke-width="0.368105" stroke-linecap="round"/>
<path d="M247.301 81.6069C248.641 81.6069 249.727 80.5206 249.727 79.1805C249.727 77.8404 248.641 76.754 247.301 76.754C245.961 76.754 244.875 77.8404 244.875 79.1805C244.875 80.5206 245.961 81.6069 247.301 81.6069Z" fill="#565B61" fill-opacity="0.4" stroke="#565B61" stroke-opacity="0.4" stroke-width="0.368105" stroke-linecap="round"/>
<path d="M2.61043 96.9209C3.95054 96.9209 5.03691 95.8346 5.03691 94.4945C5.03691 93.1544 3.95054 92.068 2.61043 92.068C1.27033 92.068 0.18396 93.1544 0.18396 94.4945C0.18396 95.8346 1.27033 96.9209 2.61043 96.9209Z" fill="#565B61" fill-opacity="0.4" stroke="#565B61" stroke-opacity="0.4" stroke-width="0.368105" stroke-linecap="round"/>
<path d="M23.0013 96.9209C24.3414 96.9209 25.4278 95.8346 25.4278 94.4945C25.4278 93.1544 24.3414 92.068 23.0013 92.068C21.6612 92.068 20.5748 93.1544 20.5748 94.4945C20.5748 95.8346 21.6612 96.9209 23.0013 96.9209Z" fill="#565B61" fill-opacity="0.4" stroke="#565B61" stroke-opacity="0.4" stroke-width="0.368105" stroke-linecap="round"/>
<path d="M43.3922 96.9209C44.7323 96.9209 45.8186 95.8346 45.8186 94.4945C45.8186 93.1544 44.7323 92.068 43.3922 92.068C42.0521 92.068 40.9657 93.1544 40.9657 94.4945C40.9657 95.8346 42.0521 96.9209 43.3922 96.9209Z" fill="#565B61" fill-opacity="0.4" stroke="#565B61" stroke-opacity="0.4" stroke-width="0.368105" stroke-linecap="round"/>
<path d="M63.7832 96.9209C65.1233 96.9209 66.2096 95.8346 66.2096 94.4945C66.2096 93.1544 65.1233 92.068 63.7832 92.068C62.4431 92.068 61.3567 93.1544 61.3567 94.4945C61.3567 95.8346 62.4431 96.9209 63.7832 96.9209Z" fill="#565B61" fill-opacity="0.4" stroke="#565B61" stroke-opacity="0.4" stroke-width="0.368105" stroke-linecap="round"/>
<path d="M84.174 96.9209C85.5141 96.9209 86.6005 95.8346 86.6005 94.4945C86.6005 93.1544 85.5141 92.068 84.174 92.068C82.8339 92.068 81.7476 93.1544 81.7476 94.4945C81.7476 95.8346 82.8339 96.9209 84.174 96.9209Z" fill="#565B61" fill-opacity="0.4" stroke="#565B61" stroke-opacity="0.4" stroke-width="0.368105" stroke-linecap="round"/>
<path d="M104.565 96.9209C105.905 96.9209 106.991 95.8346 106.991 94.4945C106.991 93.1544 105.905 92.068 104.565 92.068C103.225 92.068 102.138 93.1544 102.138 94.4945C102.138 95.8346 103.225 96.9209 104.565 96.9209Z" fill="#565B61" fill-opacity="0.4" stroke="#565B61" stroke-opacity="0.4" stroke-width="0.368105" stroke-linecap="round"/>
<path d="M124.956 96.9209C126.296 96.9209 127.382 95.8346 127.382 94.4945C127.382 93.1544 126.296 92.068 124.956 92.068C123.616 92.068 122.529 93.1544 122.529 94.4945C122.529 95.8346 123.616 96.9209 124.956 96.9209Z" fill="#565B61" fill-opacity="0.4" stroke="#565B61" stroke-opacity="0.4" stroke-width="0.368105" stroke-linecap="round"/>
<path d="M145.347 96.9209C146.687 96.9209 147.773 95.8346 147.773 94.4945C147.773 93.1544 146.687 92.068 145.347 92.068C144.007 92.068 142.92 93.1544 142.92 94.4945C142.92 95.8346 144.007 96.9209 145.347 96.9209Z" fill="#565B61" fill-opacity="0.4" stroke="#565B61" stroke-opacity="0.4" stroke-width="0.368105" stroke-linecap="round"/>
<path d="M165.738 96.9209C167.078 96.9209 168.164 95.8346 168.164 94.4945C168.164 93.1544 167.078 92.068 165.738 92.068C164.397 92.068 163.311 93.1544 163.311 94.4945C163.311 95.8346 164.397 96.9209 165.738 96.9209Z" fill="#565B61" fill-opacity="0.4" stroke="#565B61" stroke-opacity="0.4" stroke-width="0.368105" stroke-linecap="round"/>
<path d="M186.128 96.9209C187.468 96.9209 188.555 95.8346 188.555 94.4945C188.555 93.1544 187.468 92.068 186.128 92.068C184.788 92.068 183.702 93.1544 183.702 94.4945C183.702 95.8346 184.788 96.9209 186.128 96.9209Z" fill="#565B61" fill-opacity="0.4" stroke="#565B61" stroke-opacity="0.4" stroke-width="0.368105" stroke-linecap="round"/>
<path d="M206.519 96.9209C207.859 96.9209 208.946 95.8346 208.946 94.4945C208.946 93.1544 207.859 92.068 206.519 92.068C205.179 92.068 204.093 93.1544 204.093 94.4945C204.093 95.8346 205.179 96.9209 206.519 96.9209Z" fill="#565B61" fill-opacity="0.4" stroke="#565B61" stroke-opacity="0.4" stroke-width="0.368105" stroke-linecap="round"/>
<path d="M226.91 96.9209C228.25 96.9209 229.337 95.8346 229.337 94.4945C229.337 93.1544 228.25 92.068 226.91 92.068C225.57 92.068 224.484 93.1544 224.484 94.4945C224.484 95.8346 225.57 96.9209 226.91 96.9209Z" fill="#565B61" fill-opacity="0.4" stroke="#565B61" stroke-opacity="0.4" stroke-width="0.368105" stroke-linecap="round"/>
<path d="M247.301 96.9209C248.641 96.9209 249.727 95.8346 249.727 94.4945C249.727 93.1544 248.641 92.068 247.301 92.068C245.961 92.068 244.875 93.1544 244.875 94.4945C244.875 95.8346 245.961 96.9209 247.301 96.9209Z" fill="#565B61" fill-opacity="0.4" stroke="#565B61" stroke-opacity="0.4" stroke-width="0.368105" stroke-linecap="round"/>
<path d="M2.61043 112.235C3.95054 112.235 5.03691 111.149 5.03691 109.808C5.03691 108.468 3.95054 107.382 2.61043 107.382C1.27033 107.382 0.18396 108.468 0.18396 109.808C0.18396 111.149 1.27033 112.235 2.61043 112.235Z" fill="#565B61" fill-opacity="0.4" stroke="#565B61" stroke-opacity="0.4" stroke-width="0.368105" stroke-linecap="round"/>
<path d="M23.0013 112.235C24.3414 112.235 25.4278 111.149 25.4278 109.808C25.4278 108.468 24.3414 107.382 23.0013 107.382C21.6612 107.382 20.5748 108.468 20.5748 109.808C20.5748 111.149 21.6612 112.235 23.0013 112.235Z" fill="#565B61" fill-opacity="0.4" stroke="#565B61" stroke-opacity="0.4" stroke-width="0.368105" stroke-linecap="round"/>
<path d="M43.3922 112.235C44.7323 112.235 45.8186 111.149 45.8186 109.808C45.8186 108.468 44.7323 107.382 43.3922 107.382C42.0521 107.382 40.9657 108.468 40.9657 109.808C40.9657 111.149 42.0521 112.235 43.3922 112.235Z" fill="#565B61" fill-opacity="0.4" stroke="#565B61" stroke-opacity="0.4" stroke-width="0.368105" stroke-linecap="round"/>
<path d="M63.7832 112.235C65.1233 112.235 66.2096 111.149 66.2096 109.808C66.2096 108.468 65.1233 107.382 63.7832 107.382C62.4431 107.382 61.3567 108.468 61.3567 109.808C61.3567 111.149 62.4431 112.235 63.7832 112.235Z" fill="#565B61" fill-opacity="0.4" stroke="#565B61" stroke-opacity="0.4" stroke-width="0.368105" stroke-linecap="round"/>
<path d="M84.174 112.235C85.5141 112.235 86.6005 111.149 86.6005 109.808C86.6005 108.468 85.5141 107.382 84.174 107.382C82.8339 107.382 81.7476 108.468 81.7476 109.808C81.7476 111.149 82.8339 112.235 84.174 112.235Z" fill="#565B61" fill-opacity="0.4" stroke="#565B61" stroke-opacity="0.4" stroke-width="0.368105" stroke-linecap="round"/>
<path d="M104.565 112.235C105.905 112.235 106.991 111.149 106.991 109.808C106.991 108.468 105.905 107.382 104.565 107.382C103.225 107.382 102.138 108.468 102.138 109.808C102.138 111.149 103.225 112.235 104.565 112.235Z" fill="#565B61" fill-opacity="0.4" stroke="#565B61" stroke-opacity="0.4" stroke-width="0.368105" stroke-linecap="round"/>
<path d="M124.956 112.235C126.296 112.235 127.382 111.149 127.382 109.808C127.382 108.468 126.296 107.382 124.956 107.382C123.616 107.382 122.529 108.468 122.529 109.808C122.529 111.149 123.616 112.235 124.956 112.235Z" fill="#565B61" fill-opacity="0.4" stroke="#565B61" stroke-opacity="0.4" stroke-width="0.368105" stroke-linecap="round"/>
<path d="M145.347 112.235C146.687 112.235 147.773 111.149 147.773 109.808C147.773 108.468 146.687 107.382 145.347 107.382C144.007 107.382 142.92 108.468 142.92 109.808C142.92 111.149 144.007 112.235 145.347 112.235Z" fill="#565B61" fill-opacity="0.4" stroke="#565B61" stroke-opacity="0.4" stroke-width="0.368105" stroke-linecap="round"/>
<path d="M165.738 112.235C167.078 112.235 168.164 111.149 168.164 109.808C168.164 108.468 167.078 107.382 165.738 107.382C164.397 107.382 163.311 108.468 163.311 109.808C163.311 111.149 164.397 112.235 165.738 112.235Z" fill="#565B61" fill-opacity="0.4" stroke="#565B61" stroke-opacity="0.4" stroke-width="0.368105" stroke-linecap="round"/>
<path d="M186.128 112.235C187.468 112.235 188.555 111.149 188.555 109.808C188.555 108.468 187.468 107.382 186.128 107.382C184.788 107.382 183.702 108.468 183.702 109.808C183.702 111.149 184.788 112.235 186.128 112.235Z" fill="#565B61" fill-opacity="0.4" stroke="#565B61" stroke-opacity="0.4" stroke-width="0.368105" stroke-linecap="round"/>
<path d="M206.519 112.235C207.859 112.235 208.946 111.149 208.946 109.808C208.946 108.468 207.859 107.382 206.519 107.382C205.179 107.382 204.093 108.468 204.093 109.808C204.093 111.149 205.179 112.235 206.519 112.235Z" fill="#565B61" fill-opacity="0.4" stroke="#565B61" stroke-opacity="0.4" stroke-width="0.368105" stroke-linecap="round"/>
<path d="M226.91 112.235C228.25 112.235 229.337 111.149 229.337 109.808C229.337 108.468 228.25 107.382 226.91 107.382C225.57 107.382 224.484 108.468 224.484 109.808C224.484 111.149 225.57 112.235 226.91 112.235Z" fill="#565B61" fill-opacity="0.4" stroke="#565B61" stroke-opacity="0.4" stroke-width="0.368105" stroke-linecap="round"/>
<path d="M247.301 112.235C248.641 112.235 249.727 111.149 249.727 109.808C249.727 108.468 248.641 107.382 247.301 107.382C245.961 107.382 244.875 108.468 244.875 109.808C244.875 111.149 245.961 112.235 247.301 112.235Z" fill="#565B61" fill-opacity="0.4" stroke="#565B61" stroke-opacity="0.4" stroke-width="0.368105" stroke-linecap="round"/>
</g>
<defs>
<clipPath id="clip0_13_716">
<rect width="249.912" height="112.419" fill="white"/>
</clipPath>
</defs>
</svg>
