<svg width="133" height="125" viewBox="0 0 133 125" fill="none" xmlns="http://www.w3.org/2000/svg">
<g opacity="0.5">
<path d="M4.45489 107.922L45.644 13.8074L106.555 96.5356L4.45489 107.922Z" stroke="#597ED4" stroke-width="5" stroke-linecap="round"/>
<path d="M66.9751 10.9113C64.1644 9.65599 61.7995 8.54016 61.7196 8.43172C61.6398 8.32329 61.7593 7.79318 61.9854 7.25373C62.3074 6.48484 62.5529 6.35016 63.1214 6.63048C63.5203 6.82715 65.3686 7.65145 67.2288 8.46226C70.0798 9.705 70.8153 10.2126 71.9134 11.6956C72.6357 12.6711 72.9642 13.3967 72.6507 13.3243C72.3399 13.2525 69.7858 12.1667 66.9751 10.9113Z" fill="#615B56" fill-opacity="0.4"/>
<path d="M69.6725 20.6624C58.3168 15.6674 57.9533 15.4429 59.0955 14.1291C59.422 13.7535 61.4906 14.5251 69.6206 18.0548C79.3587 22.2826 79.7887 22.5123 81.0491 24.1601C82.1057 25.5415 82.2121 25.8436 81.5995 25.7235C81.1818 25.6416 75.8147 23.3641 69.6725 20.6624Z" fill="#615B56" fill-opacity="0.4"/>
<path d="M78.8847 33.264C72.3886 30.3912 64.3916 26.8697 61.1136 25.4385L55.1536 22.8364L55.5878 21.862C55.895 21.1726 56.2314 20.9566 56.7376 21.1237C57.1312 21.2536 64.601 24.4807 73.3372 28.2949C89.1807 35.2121 89.2245 35.2343 90.5249 36.9817C91.2566 37.965 91.5801 38.6795 91.2622 38.6104C90.9507 38.5427 85.3809 36.1368 78.8847 33.264Z" fill="#615B56" fill-opacity="0.4"/>
<path d="M76.3696 40.7441C52.4256 30.2063 52.189 30.0919 52.4625 29.1838C52.6145 28.6794 52.8154 28.2081 52.9089 28.1365C53.0025 28.0649 63.2635 32.4558 75.7112 37.894L98.3433 47.7816L99.8275 49.6801C100.644 50.7242 101.141 51.5355 100.932 51.4829C100.724 51.4302 89.6704 46.5978 76.3696 40.7441Z" fill="#615B56" fill-opacity="0.4"/>
<path d="M79.2413 50.5705C62.7049 43.3117 49.1397 37.3237 49.0966 37.2638C49.0534 37.2039 49.1837 36.6876 49.3862 36.1163C49.6494 35.3735 49.9244 35.1596 50.3518 35.3651C50.6804 35.5232 63.7478 41.248 79.3904 48.0868L107.831 60.5211L109.136 62.2667C109.868 63.2462 110.192 63.9588 109.874 63.8903C109.563 63.8232 95.7778 57.8292 79.2413 50.5705Z" fill="#615B56" fill-opacity="0.4"/>
<path d="M82.5153 60.6131C54.5472 48.358 45.8868 44.4172 45.9544 43.9766C46.2392 42.1209 45.5363 41.8515 81.9158 57.7572L116.954 73.0763L118.439 74.9668C119.256 76.0066 119.753 76.8157 119.545 76.7647C119.336 76.7138 102.672 69.4456 82.5153 60.6131Z" fill="#615B56" fill-opacity="0.4"/>
<path d="M84.8922 70.2131C67.3235 62.5056 50.5958 55.1715 47.7195 53.9152L42.4898 51.6309L43.0519 50.5673C43.4504 49.8132 43.7924 49.5916 44.227 49.8059C44.5642 49.9721 61.6216 57.4501 82.1323 66.4236C102.643 75.3971 120.089 83.0359 120.9 83.3988L122.375 84.0585L120.372 84.2803C119.27 84.4022 118.024 84.44 117.602 84.3643C117.18 84.2886 102.461 77.9206 84.8922 70.2131Z" fill="#615B56" fill-opacity="0.4"/>
<path d="M70.7468 72.5783C39.9182 59.0439 39.5469 58.8686 39.8181 57.9744C39.969 57.4766 40.1741 57.0071 40.2739 56.9309C40.4232 56.817 57.143 64.0743 102.317 83.8611L106.749 85.8023L104.947 85.9965C103.956 86.1033 102.876 86.2101 102.547 86.2339C102.219 86.2577 87.9085 80.1127 70.7468 72.5783Z" fill="#615B56" fill-opacity="0.4"/>
<path d="M68.7835 80.3174C59.545 76.2446 48.4571 71.3656 44.1439 69.4751L36.3016 66.0378L36.6955 65.0675C36.9122 64.5338 37.1216 64.0646 37.161 64.0249C37.2489 63.9361 89.4349 86.7377 90.1907 87.1952C90.842 87.5894 88.0032 88.123 86.5415 87.8812C86.0131 87.7939 78.022 84.3901 68.7835 80.3174Z" fill="#615B56" fill-opacity="0.4"/>
<path d="M52.1953 81.57C33.8056 73.5214 33.4124 73.3279 33.6515 72.4428C33.786 71.9455 33.987 71.4715 34.0984 71.3894C34.2555 71.2738 51.2124 78.6023 74.5347 88.8652C75.2832 89.1946 75.0774 89.2963 73.2016 89.5238L70.9834 89.793L52.1953 81.57Z" fill="#615B56" fill-opacity="0.4"/>
<path d="M43.4437 86.3668C37.2509 83.636 31.7256 81.2114 31.1651 80.9787C30.1532 80.5587 29.9698 79.6725 30.7174 78.8154C30.9763 78.5185 34.824 80.0472 44.7204 84.3785C52.2258 87.6634 58.616 90.5046 58.9208 90.6924C59.2821 90.9148 58.7772 91.1134 57.471 91.2626C56.3687 91.3885 55.295 91.4555 55.085 91.4117C54.875 91.3679 49.6364 89.0976 43.4437 86.3668Z" fill="#615B56" fill-opacity="0.4"/>
<path d="M32.7095 90.2752C27.6341 88.0302 27.0954 87.7037 27.2088 86.9425C27.2781 86.4784 27.5223 86.0186 27.7516 85.9209C27.981 85.8231 31.786 87.3157 36.2072 89.2377C44.2343 92.7272 44.2436 92.7325 42.637 92.9621C40.1305 93.3202 38.7466 92.9457 32.7095 90.2752Z" fill="#615B56" fill-opacity="0.4"/>
<path d="M23.6472 94.8168C23.6647 94.7018 23.9042 94.2089 24.1794 93.7215C24.6571 92.8757 24.7571 92.8658 26.3787 93.5054C28.3315 94.2757 28.4883 94.6965 26.851 94.7729C26.2219 94.8023 25.2365 94.8713 24.6613 94.9262C24.0861 94.9811 23.6298 94.9318 23.6472 94.8168Z" fill="#615B56" fill-opacity="0.4"/>
</g>
</svg>
