<svg width="1366" height="657" viewBox="0 0 1366 657" fill="none" xmlns="http://www.w3.org/2000/svg">
<line y1="-1" x2="14.9775" y2="-1" transform="matrix(0.379909 0.925024 -0.923193 0.384337 418.551 574.88)" stroke="#615B56" stroke-opacity="0.3" stroke-width="2"/>
<line y1="-1" x2="15" y2="-1" transform="matrix(-0.923193 0.384337 -0.379909 -0.925024 428.32 578.924)" stroke="#615B56" stroke-opacity="0.3" stroke-width="2"/>
<line y1="-1" x2="14.9775" y2="-1" transform="matrix(0.379909 0.925024 -0.923193 0.384337 95.1855 505.718)" stroke="#615B56" stroke-opacity="0.3" stroke-width="2"/>
<line y1="-1" x2="15" y2="-1" transform="matrix(-0.923193 0.384337 -0.379909 -0.925024 104.954 509.763)" stroke="#615B56" stroke-opacity="0.3" stroke-width="2"/>
<line y1="-1" x2="14.9775" y2="-1" transform="matrix(0.379909 0.925024 -0.923193 0.384337 1144.06 494.718)" stroke="#615B56" stroke-opacity="0.3" stroke-width="2"/>
<line y1="-1" x2="15" y2="-1" transform="matrix(-0.923193 0.384337 -0.379909 -0.925024 1153.82 498.763)" stroke="#615B56" stroke-opacity="0.3" stroke-width="2"/>
<line y1="-1" x2="14.9775" y2="-1" transform="matrix(0.379909 0.925024 -0.923193 0.384337 934.501 595.942)" stroke="#615B56" stroke-opacity="0.3" stroke-width="2"/>
<line y1="-1" x2="15" y2="-1" transform="matrix(-0.923193 0.384337 -0.379909 -0.925024 944.27 599.987)" stroke="#615B56" stroke-opacity="0.3" stroke-width="2"/>
<line y1="-1" x2="14.9775" y2="-1" transform="matrix(0.379909 0.925024 -0.923193 0.384337 1063.98 343.047)" stroke="#615B56" stroke-opacity="0.3" stroke-width="2"/>
<line y1="-1" x2="15" y2="-1" transform="matrix(-0.923193 0.384337 -0.379909 -0.925024 1073.75 347.092)" stroke="#615B56" stroke-opacity="0.3" stroke-width="2"/>
<line y1="-1" x2="14.9775" y2="-1" transform="matrix(-0.76916 0.639056 -0.633919 -0.7734 764.664 471.55)" stroke="#615B56" stroke-opacity="0.3" stroke-width="2"/>
<line y1="-1" x2="15" y2="-1" transform="matrix(-0.633919 -0.7734 0.76916 -0.639056 763.659 482.136)" stroke="#615B56" stroke-opacity="0.3" stroke-width="2"/>
<line y1="-1" x2="14.9775" y2="-1" transform="matrix(-0.775104 0.631833 -0.626657 -0.779295 537.776 627.611)" stroke="#615B56" stroke-opacity="0.3" stroke-width="2"/>
<line y1="-1" x2="15" y2="-1" transform="matrix(-0.626657 -0.779295 0.775104 -0.631833 536.671 638.187)" stroke="#615B56" stroke-opacity="0.3" stroke-width="2"/>
<line y1="-1" x2="14.9775" y2="-1" transform="matrix(-0.76916 0.639056 -0.633919 -0.7734 699.095 360.698)" stroke="#615B56" stroke-opacity="0.3" stroke-width="2"/>
<line y1="-1" x2="15" y2="-1" transform="matrix(-0.633919 -0.7734 0.76916 -0.639056 698.089 371.284)" stroke="#615B56" stroke-opacity="0.3" stroke-width="2"/>
<line y1="-1" x2="14.9775" y2="-1" transform="matrix(-0.901852 0.432044 -0.429259 -0.903181 357.126 451.155)" stroke="#615B56" stroke-opacity="0.3" stroke-width="2"/>
<line y1="-1" x2="15" y2="-1" transform="matrix(-0.429259 -0.903181 0.901852 -0.432044 353.591 461.164)" stroke="#615B56" stroke-opacity="0.3" stroke-width="2"/>
<line y1="-1" x2="14.9775" y2="-1" transform="matrix(-0.625827 0.779962 -0.775794 -0.630986 197.459 610.901)" stroke="#615B56" stroke-opacity="0.3" stroke-width="2"/>
<line y1="-1" x2="15" y2="-1" transform="matrix(-0.775794 -0.630986 0.625827 -0.779962 198.591 621.475)" stroke="#615B56" stroke-opacity="0.3" stroke-width="2"/>
<line y1="-1" x2="14.9775" y2="-1" transform="matrix(-0.293433 0.95598 -0.95485 -0.29709 957.091 185.85)" stroke="#615B56" stroke-opacity="0.3" stroke-width="2"/>
<line y1="-1" x2="15" y2="-1" transform="matrix(-0.95485 -0.29709 0.293433 -0.95598 962.055 195.237)" stroke="#615B56" stroke-opacity="0.3" stroke-width="2"/>
<line y1="-1" x2="14.9775" y2="-1" transform="matrix(-0.293433 0.95598 -0.95485 -0.29709 851.209 86.9495)" stroke="#615B56" stroke-opacity="0.3" stroke-width="2"/>
<line y1="-1" x2="15" y2="-1" transform="matrix(-0.95485 -0.29709 0.293433 -0.95598 856.173 96.3368)" stroke="#615B56" stroke-opacity="0.3" stroke-width="2"/>
<line y1="-1" x2="14.0046" y2="-1" transform="matrix(-0.685219 0.727619 -0.821511 -0.569302 399.489 5.02698)" stroke="#615B56" stroke-opacity="0.3" stroke-width="2"/>
<line y1="-1" x2="14.5021" y2="-1" transform="matrix(-0.821511 -0.569302 0.685219 -0.727619 400.648 14.2499)" stroke="#615B56" stroke-opacity="0.3" stroke-width="2"/>
<line y1="-1" x2="14.0046" y2="-1" transform="matrix(-0.685219 0.727619 -0.821511 -0.569302 95.959 85.6597)" stroke="#615B56" stroke-opacity="0.3" stroke-width="2"/>
<line y1="-1" x2="14.5021" y2="-1" transform="matrix(-0.821511 -0.569302 0.685219 -0.727619 97.1176 94.8826)" stroke="#615B56" stroke-opacity="0.3" stroke-width="2"/>
<line y1="-1" x2="14.0046" y2="-1" transform="matrix(-0.685219 0.727619 -0.821511 -0.569302 47.1813 344.211)" stroke="#615B56" stroke-opacity="0.3" stroke-width="2"/>
<line y1="-1" x2="14.5021" y2="-1" transform="matrix(-0.821511 -0.569302 0.685219 -0.727619 48.34 353.434)" stroke="#615B56" stroke-opacity="0.3" stroke-width="2"/>
<line y1="-1" x2="15.0292" y2="-1" transform="matrix(-0.943264 0.331281 -0.430603 -0.902231 613.679 258.665)" stroke="#615B56" stroke-opacity="0.3" stroke-width="2"/>
<line y1="-1" x2="13.434" y2="-1" transform="matrix(-0.430603 -0.902231 0.943264 -0.331281 609.483 267.214)" stroke="#615B56" stroke-opacity="0.3" stroke-width="2"/>
<line y1="-1" x2="15.0292" y2="-1" transform="matrix(-0.943264 0.331281 -0.430603 -0.902231 1236.86 34.2511)" stroke="#615B56" stroke-opacity="0.3" stroke-width="2"/>
<line y1="-1" x2="13.434" y2="-1" transform="matrix(-0.430603 -0.902231 0.943264 -0.331281 1232.67 42.8008)" stroke="#615B56" stroke-opacity="0.3" stroke-width="2"/>
<line y1="-1" x2="15.0292" y2="-1" transform="matrix(-0.943264 0.331281 -0.430603 -0.902231 1338.47 153.878)" stroke="#615B56" stroke-opacity="0.3" stroke-width="2"/>
<line y1="-1" x2="13.434" y2="-1" transform="matrix(-0.430603 -0.902231 0.943264 -0.331281 1334.28 162.428)" stroke="#615B56" stroke-opacity="0.3" stroke-width="2"/>
<line y1="-1" x2="15.0292" y2="-1" transform="matrix(-0.943264 0.331281 -0.430603 -0.902231 1213.33 290.553)" stroke="#615B56" stroke-opacity="0.3" stroke-width="2"/>
<line y1="-1" x2="13.434" y2="-1" transform="matrix(-0.430603 -0.902231 0.943264 -0.331281 1209.14 299.103)" stroke="#615B56" stroke-opacity="0.3" stroke-width="2"/>
<line y1="-1" x2="14.8792" y2="-1" transform="matrix(-0.915346 -0.403401 0.523514 -0.852399 1355.15 436.483)" stroke="#615B56" stroke-opacity="0.3" stroke-width="2"/>
<line y1="-1" x2="13.6005" y2="-1" transform="matrix(0.523515 -0.852399 0.915346 0.403401 1344.78 439.278)" stroke="#615B56" stroke-opacity="0.3" stroke-width="2"/>
<line y1="-1" x2="15.0292" y2="-1" transform="matrix(-0.943264 0.331281 -0.430603 -0.902231 1314.32 584.932)" stroke="#615B56" stroke-opacity="0.3" stroke-width="2"/>
<line y1="-1" x2="13.434" y2="-1" transform="matrix(-0.430603 -0.902231 0.943264 -0.331281 1310.12 593.482)" stroke="#615B56" stroke-opacity="0.3" stroke-width="2"/>
<line y1="-1" x2="15.0292" y2="-1" transform="matrix(-0.943264 0.331281 -0.430603 -0.902231 1107.74 110.109)" stroke="#615B56" stroke-opacity="0.3" stroke-width="2"/>
<line y1="-1" x2="13.434" y2="-1" transform="matrix(-0.430603 -0.902231 0.943264 -0.331281 1103.54 118.659)" stroke="#615B56" stroke-opacity="0.3" stroke-width="2"/>
<line y1="-1" x2="15.2782" y2="-1" transform="matrix(-0.990135 -0.139745 0.18835 -0.982041 16.1609 11.6581)" stroke="#615B56" stroke-opacity="0.3" stroke-width="2"/>
<line y1="-1" x2="13.1492" y2="-1" transform="matrix(0.18835 -0.982041 0.990135 0.139745 7.35864 17.0471)" stroke="#615B56" stroke-opacity="0.3" stroke-width="2"/>
</svg>
