<svg width="48" height="48" viewBox="0 0 48 48" fill="none" xmlns="http://www.w3.org/2000/svg">
<g opacity="0.5">
<mask id="mask0_86_2" style="mask-type:luminance" maskUnits="userSpaceOnUse" x="0" y="0" width="48" height="48">
<path d="M0.651123 0.675011H47.3011V47.325H0.651123V0.675011Z" fill="white"/>
</mask>
<g mask="url(#mask0_86_2)">
<path d="M47.301 24.0003C47.301 36.8822 36.8581 47.3252 23.9762 47.3252C11.0943 47.3252 0.651367 36.8822 0.651367 24.0003C0.651367 11.118 11.0943 0.675335 23.9762 0.675335C36.8581 0.675335 47.301 11.118 47.301 24.0003Z" fill="#E781A1"/>
</g>
</g>
<path d="M27.3667 37.2106C27.2528 37.196 27.1941 37.1593 27.1941 37.1593L27.3667 37.2106Z" fill="#814F67"/>
<path d="M32.7979 33.8359C32.7979 33.8359 32.457 33.5607 31.8443 33.1902C33.3632 29.6282 33.7852 25.3732 33.7852 25.3732C32.8423 28.6819 31.9653 31.0807 31.1801 32.8123C28.6112 31.4439 23.3089 29.6502 17.6653 33.8396C16.414 32.3612 14.7775 30.0061 12.7369 26.2532C12.7809 26.4405 13.9809 31.0953 17.2433 34.1658C17.21 34.1881 17.181 34.2138 17.1477 34.2394C17.1477 34.2394 11.1371 33.0729 10.6931 21.6716C10.4251 14.812 10.9427 9.61762 12.6636 6.76006C12.8106 6.51049 12.9683 6.27958 13.1369 6.06667C14.2488 4.65821 15.7717 4.04178 17.7863 4.34266C17.7863 4.34266 24.6702 -0.143934 31.0184 5.60084C31.5614 6.08899 32.042 6.67943 32.468 7.35417C32.5006 7.40581 32.534 7.46079 32.5706 7.51211C37.0253 14.8193 35.2785 31.2972 32.7979 33.8359Z" fill="#814F67"/>
<g opacity="0.100006">
<mask id="mask1_86_2" style="mask-type:luminance" maskUnits="userSpaceOnUse" x="10" y="2" width="21" height="32">
<path d="M10.6267 2.67503H30.3764V33.744H10.6267V2.67503Z" fill="white"/>
</mask>
<g mask="url(#mask1_86_2)">
<path d="M30.3764 5.05448C24.5821 1.43754 18.9091 5.13478 18.9091 5.13478C16.8946 4.83423 15.3717 5.45032 14.2601 6.85911C14.0911 7.07203 13.9335 7.30294 13.7868 7.55251C12.0656 10.4101 11.5483 15.6044 11.8159 22.4641C12.0729 29.0815 14.2088 32.251 15.9517 33.7444C14.1758 32.7461 11.0127 29.8266 10.6933 21.6717C10.4254 14.812 10.9427 9.61771 12.6639 6.76015C12.8105 6.51058 12.9682 6.27967 13.1372 6.06675C14.2491 4.6583 15.772 4.04187 17.7865 4.34275C17.7865 4.34275 24.2155 0.15337 30.3764 5.05448Z" fill="black"/>
</g>
</g>
<path d="M24.7586 31.4872H21.5442V27.8666H24.7586V31.4872Z" fill="#FECAB9"/>
<g opacity="0.300003">
<mask id="mask2_86_2" style="mask-type:luminance" maskUnits="userSpaceOnUse" x="21" y="27" width="4" height="4">
<path d="M21.5441 27.8666H24.7585V30.0391H21.5441V27.8666Z" fill="white"/>
</mask>
<g mask="url(#mask2_86_2)">
<path d="M24.7591 27.8666V29.374C24.2088 29.6862 23.4746 30.0604 23.1519 30.0384C22.8546 30.0197 22.139 29.7078 21.5447 29.4293V27.8666H24.7591Z" fill="black"/>
</g>
</g>
<path d="M14.3913 21.821C14.3766 21.8357 14.3583 21.8467 14.3436 21.8577C12.1491 23.1858 10.0649 18.2851 11.3308 17.2395C11.5365 17.0705 11.7492 16.9569 11.9621 16.8836C12.6151 16.6634 13.2794 16.8173 13.7234 16.9899C14.0427 17.1109 14.2483 17.2395 14.2483 17.2395C14.2483 17.2395 14.2923 17.3714 14.362 17.5917C14.6483 18.5453 15.3306 21.161 14.3913 21.821Z" fill="#FECAB9"/>
<g opacity="0.300003">
<mask id="mask3_86_2" style="mask-type:luminance" maskUnits="userSpaceOnUse" x="11" y="17" width="3" height="4">
<path d="M11.8413 17.5623H13.5985V20.9346H11.8413V17.5623Z" fill="white"/>
</mask>
<g mask="url(#mask3_86_2)">
<path d="M13.4012 20.9348C13.4068 20.9348 13.4125 20.9344 13.4185 20.9344C13.5198 20.9324 13.6005 20.8488 13.5985 20.7475C13.5965 20.6465 13.5258 20.5652 13.4115 20.5676C13.2478 20.5759 13.0892 20.4966 12.9339 20.3463C12.5322 19.9585 12.2202 19.1048 12.2086 18.3601C12.2046 18.0998 12.3089 18.0275 12.3429 18.0039C12.5779 17.8413 13.0925 17.9859 13.2542 18.0499C13.3482 18.0862 13.4552 18.0402 13.4918 17.9459C13.5291 17.8516 13.4828 17.7453 13.3882 17.7083C13.3058 17.676 12.5702 17.4005 12.1339 17.7023C11.9972 17.7973 11.8356 17.9889 11.8416 18.3657C11.8529 19.0905 12.1442 20.0944 12.6789 20.6102C12.9019 20.8255 13.1448 20.9348 13.4012 20.9348Z" fill="black"/>
</g>
</g>
<path d="M30.7154 17.2388C30.7154 17.2388 32.3707 16.1928 33.6356 17.2388C34.9005 18.2847 32.8153 23.1865 30.6218 21.8593C29.3835 21.1103 30.7154 17.2388 30.7154 17.2388Z" fill="#FECAB9"/>
<g opacity="0.300003">
<mask id="mask4_86_2" style="mask-type:luminance" maskUnits="userSpaceOnUse" x="31" y="17" width="3" height="4">
<path d="M31.3671 17.5623H33.1239V20.9346H31.3671V17.5623Z" fill="white"/>
</mask>
<g mask="url(#mask4_86_2)">
<path d="M31.5645 20.9348C31.5585 20.9348 31.5529 20.9344 31.5469 20.9344C31.4459 20.9324 31.3652 20.8488 31.3672 20.7475C31.3692 20.6465 31.4396 20.5652 31.5542 20.5676C31.7179 20.5759 31.8765 20.4966 32.0315 20.3463C32.4332 19.9585 32.7455 19.1048 32.7568 18.3601C32.7611 18.0998 32.6568 18.0275 32.6228 18.0039C32.3875 17.8413 31.8732 17.9859 31.7112 18.0499C31.6175 18.0862 31.5105 18.0402 31.4739 17.9459C31.4366 17.8516 31.4829 17.7453 31.5772 17.7083C31.6595 17.676 32.3952 17.4005 32.8318 17.7023C32.9681 17.7973 33.1298 17.9889 33.1241 18.3657C33.1128 19.0905 32.8215 20.0944 32.2865 20.6102C32.0635 20.8255 31.8209 20.9348 31.5645 20.9348Z" fill="black"/>
</g>
</g>
<path d="M32.2476 15.0063C32.2476 15.0063 32.2036 15.5934 32.1192 16.4627C32.1192 16.481 32.1156 16.4957 32.1156 16.514C32.0972 16.712 32.0716 16.9249 32.0496 17.1488C32.0386 17.2697 32.0239 17.3944 32.0129 17.519C31.8659 18.8105 31.6643 20.3769 31.4073 21.6167C31.224 22.4971 31.011 23.2124 30.7763 23.55C29.844 24.8888 25.2354 28.7037 22.9382 29.1588C20.6337 28.7037 16.0323 24.8888 15.0964 23.55C14.8617 23.2088 14.6491 22.4787 14.4617 21.5801C14.2781 20.6851 14.1204 19.6212 13.9958 18.6122C13.8968 17.8568 13.8234 17.1341 13.7644 16.536C13.7608 16.5067 13.7571 16.4774 13.7571 16.4481C13.7534 16.4261 13.7498 16.4077 13.7498 16.3858C13.6765 15.6337 13.6325 15.1092 13.6251 15.0209V15.0063C13.6985 12.255 14.2674 10.2814 15.0857 8.87665C15.214 8.66007 15.3423 8.45848 15.482 8.27122C16.6266 6.6795 18.1348 5.97144 19.4924 5.68156H19.4964C20.1164 5.55327 20.7037 5.50896 21.21 5.50896C21.3936 5.50896 21.5623 5.51662 21.7236 5.52362C22.4612 5.56793 22.9382 5.68522 22.9382 5.68522C22.9382 5.68522 22.9602 5.68156 23.0005 5.67023C23.0262 5.66323 23.0628 5.6559 23.1032 5.64857C23.3675 5.59725 23.9364 5.50896 24.6667 5.50896C24.9087 5.50896 25.1694 5.51995 25.4407 5.54228C26.3619 5.62291 27.4299 5.87215 28.4425 6.47391C28.8828 6.73048 29.3121 7.05736 29.7124 7.46054C30.7323 8.48781 31.5799 10.0322 31.9836 12.3287C32.0386 12.6145 32.0826 12.9081 32.1192 13.2163C32.1889 13.7701 32.2292 14.3682 32.2476 15.0063Z" fill="#FED6C9"/>
<path d="M19.5575 18.1874C19.5575 18.5792 19.2398 18.8964 18.8482 18.8964C18.4566 18.8964 18.1389 18.5792 18.1389 18.1874C18.1389 17.7958 18.4566 17.4783 18.8482 17.4783C19.2398 17.4783 19.5575 17.7958 19.5575 18.1874Z" fill="#57434C"/>
<path d="M27.5077 18.1874C27.5077 18.5792 27.19 18.8964 26.798 18.8964C26.4064 18.8964 26.0887 18.5792 26.0887 18.1874C26.0887 17.7958 26.4064 17.4783 26.798 17.4783C27.19 17.4783 27.5077 17.7958 27.5077 18.1874Z" fill="#57434C"/>
<path d="M27.5073 15.5015C27.467 15.5015 27.4263 15.4925 27.3877 15.4732C26.8054 15.1816 26.2151 15.4705 26.2088 15.4732C26.0761 15.5385 25.9154 15.4859 25.8488 15.3532C25.7828 15.2206 25.8364 15.0597 25.9691 14.9937C26.0031 14.9764 26.808 14.5839 27.6273 14.9937C27.76 15.0597 27.8136 15.2206 27.7476 15.3532C27.7003 15.4472 27.6057 15.5015 27.5073 15.5015Z" fill="#57434C"/>
<g opacity="0.699997">
<mask id="mask5_86_2" style="mask-type:luminance" maskUnits="userSpaceOnUse" x="22" y="19" width="3" height="3">
<path d="M22.2695 19.6334H24.0334V21.2172H22.2695V19.6334Z" fill="white"/>
</mask>
<g mask="url(#mask5_86_2)">
<path d="M23.8122 21.2169H22.4936C22.319 21.2169 22.215 21.0327 22.3 20.8864L22.9569 19.7428C23.0419 19.5965 23.2592 19.5965 23.3442 19.7428L24.0012 20.8864C24.0908 21.0327 23.9822 21.2169 23.8122 21.2169Z" fill="black"/>
</g>
</g>
<g opacity="0.399994">
<mask id="mask6_86_2" style="mask-type:luminance" maskUnits="userSpaceOnUse" x="15" y="19" width="4" height="4">
<path d="M15.6439 19.7727H18.1388V22.2668H15.6439V19.7727Z" fill="white"/>
</mask>
<g mask="url(#mask6_86_2)">
<path d="M18.1389 21.0199C18.1389 21.7083 17.5806 22.2668 16.8916 22.2668C16.2027 22.2668 15.644 21.7083 15.644 21.0199C15.644 20.3312 16.2027 19.7731 16.8916 19.7731C17.5806 19.7731 18.1389 20.3312 18.1389 21.0199Z" fill="#9C005C"/>
</g>
</g>
<g opacity="0.399994">
<mask id="mask7_86_2" style="mask-type:luminance" maskUnits="userSpaceOnUse" x="16" y="20" width="2" height="2">
<path d="M16.0029 20.725H17.7798V21.3148H16.0029V20.725Z" fill="white"/>
</mask>
<g mask="url(#mask7_86_2)">
<path d="M16.0727 21.3146C16.0574 21.3146 16.042 21.3096 16.0294 21.2993C15.9994 21.2753 15.9944 21.2317 16.0184 21.2017L16.381 20.7509C16.4053 20.7212 16.449 20.7162 16.4787 20.7402C16.5087 20.7642 16.5133 20.8078 16.4893 20.8378L16.127 21.289C16.113 21.306 16.093 21.3146 16.0727 21.3146Z" fill="#9C005C"/>
</g>
<mask id="mask8_86_2" style="mask-type:luminance" maskUnits="userSpaceOnUse" x="16" y="20" width="2" height="2">
<path d="M16.0029 20.725H17.7798V21.3148H16.0029V20.725Z" fill="white"/>
</mask>
<g mask="url(#mask8_86_2)">
<path d="M16.7104 21.3145C16.695 21.3145 16.6797 21.3095 16.667 21.2992C16.6367 21.2752 16.632 21.2315 16.656 21.2016L17.0184 20.7507C17.0427 20.7211 17.0863 20.7161 17.1163 20.7401C17.146 20.7641 17.1507 20.8077 17.1267 20.8377L16.7644 21.2889C16.7507 21.3059 16.7307 21.3145 16.7104 21.3145Z" fill="#9C005C"/>
</g>
<mask id="mask9_86_2" style="mask-type:luminance" maskUnits="userSpaceOnUse" x="16" y="20" width="2" height="2">
<path d="M16.0029 20.725H17.7798V21.3148H16.0029V20.725Z" fill="white"/>
</mask>
<g mask="url(#mask9_86_2)">
<path d="M17.348 21.3145C17.3327 21.3145 17.3173 21.3095 17.3047 21.2992C17.2747 21.2752 17.27 21.2315 17.294 21.2016L17.6563 20.7507C17.6807 20.7211 17.7243 20.7161 17.754 20.7401C17.784 20.7641 17.7886 20.8077 17.7646 20.8377L17.4023 21.2889C17.3883 21.3059 17.3687 21.3145 17.348 21.3145Z" fill="#9C005C"/>
</g>
</g>
<g opacity="0.399994">
<mask id="mask10_86_2" style="mask-type:luminance" maskUnits="userSpaceOnUse" x="27" y="19" width="4" height="4">
<path d="M27.5073 19.7727H30.0022V22.2668H27.5073V19.7727Z" fill="white"/>
</mask>
<g mask="url(#mask10_86_2)">
<path d="M30.0022 21.0199C30.0022 21.7083 29.4436 22.2668 28.7549 22.2668C28.0657 22.2668 27.5077 21.7083 27.5077 21.0199C27.5077 20.3312 28.0657 19.7731 28.7549 19.7731C29.4436 19.7731 30.0022 20.3312 30.0022 21.0199Z" fill="#9C005C"/>
</g>
</g>
<g opacity="0.399994">
<mask id="mask11_86_2" style="mask-type:luminance" maskUnits="userSpaceOnUse" x="27" y="20" width="3" height="2">
<path d="M27.8665 20.725H29.6433V21.3148H27.8665V20.725Z" fill="white"/>
</mask>
<g mask="url(#mask11_86_2)">
<path d="M27.9362 21.3146C27.9208 21.3146 27.9055 21.3096 27.8925 21.2992C27.8625 21.2753 27.8582 21.2316 27.8822 21.2016L28.2445 20.7508C28.2685 20.7211 28.3125 20.7161 28.3421 20.7401C28.3721 20.7641 28.3765 20.8078 28.3525 20.8378L27.9901 21.2889C27.9765 21.3059 27.9568 21.3146 27.9362 21.3146Z" fill="#9C005C"/>
</g>
<mask id="mask12_86_2" style="mask-type:luminance" maskUnits="userSpaceOnUse" x="27" y="20" width="3" height="2">
<path d="M27.8665 20.725H29.6433V21.3148H27.8665V20.725Z" fill="white"/>
</mask>
<g mask="url(#mask12_86_2)">
<path d="M28.5737 21.3145C28.5584 21.3145 28.543 21.3095 28.5304 21.2992C28.5004 21.2752 28.4957 21.2315 28.5197 21.2016L28.882 20.7507C28.9064 20.7211 28.95 20.7161 28.9797 20.7401C29.0097 20.7641 29.0144 20.8077 28.9904 20.8377L28.628 21.2889C28.614 21.3059 28.5944 21.3145 28.5737 21.3145Z" fill="#9C005C"/>
</g>
<mask id="mask13_86_2" style="mask-type:luminance" maskUnits="userSpaceOnUse" x="27" y="20" width="3" height="2">
<path d="M27.8665 20.725H29.6433V21.3148H27.8665V20.725Z" fill="white"/>
</mask>
<g mask="url(#mask13_86_2)">
<path d="M29.2117 21.3145C29.1964 21.3145 29.1807 21.3095 29.1681 21.2992C29.1381 21.2752 29.1334 21.2315 29.1574 21.2016L29.5197 20.7507C29.5441 20.7211 29.5877 20.7161 29.6177 20.7401C29.6474 20.7641 29.652 20.8077 29.628 20.8377L29.2657 21.2889C29.2521 21.3059 29.2321 21.3145 29.2117 21.3145Z" fill="#9C005C"/>
</g>
</g>
<path d="M25.0881 23.1835C24.9778 23.6676 24.1519 24.0438 23.1503 24.0438C22.1527 24.0438 21.3227 23.6676 21.2124 23.1835H25.0881Z" fill="#E58191"/>
<path d="M19.5574 15.5015C19.5167 15.5015 19.4761 15.4925 19.4377 15.4732C18.8554 15.1816 18.2651 15.4705 18.2588 15.4732C18.1261 15.5385 17.9655 15.4859 17.8988 15.3532C17.8328 15.2206 17.8865 15.0597 18.0188 14.9937C18.0532 14.9764 18.8584 14.5839 19.6774 14.9937C19.81 15.0597 19.8637 15.2206 19.7974 15.3532C19.7504 15.4472 19.6557 15.5015 19.5574 15.5015Z" fill="#57434C"/>
<g opacity="0.300003">
<mask id="mask14_86_2" style="mask-type:luminance" maskUnits="userSpaceOnUse" x="13" y="5" width="20" height="12">
<path d="M13.625 5.50928H32.2478V16.4627H13.625V5.50928Z" fill="white"/>
</mask>
<g mask="url(#mask14_86_2)">
<path d="M32.2477 15.0064C32.2477 15.0064 32.2037 15.5935 32.1194 16.4628C30.6518 15.9567 29.0772 15.6595 27.529 15.4982H27.5253C27.4997 15.4945 27.4663 15.4905 27.4407 15.4905H27.4337C27.085 15.4542 26.7434 15.4246 26.4024 15.4026H26.3987C26.2187 15.3916 26.0391 15.3806 25.8631 15.3736C21.8484 15.179 18.4506 15.7658 18.4506 15.7658C18.4433 15.6411 18.4396 15.5239 18.4323 15.4062C18.4213 15.2156 18.4103 15.0357 18.3956 14.8634C18.1386 11.3858 17.5297 11.5254 17.5297 11.5254C17.17 13.0475 17.779 15.8834 17.779 15.8834C16.3774 15.8611 14.4582 16.2792 13.7572 16.4482C13.7536 16.4262 13.7499 16.4079 13.7499 16.3859C13.6766 15.6338 13.6326 15.1094 13.6252 15.0211V15.0064C13.6986 12.2551 14.2675 10.2816 15.0858 8.87676C15.2141 8.66018 15.3425 8.45859 15.4821 8.27133C16.6267 6.67961 18.1349 5.97155 19.4925 5.68166H19.4965L21.7237 5.52373L21.9147 5.50906L23.0006 5.67034L28.4426 6.47402C28.8829 6.73059 29.3122 7.05747 29.7125 7.46064C30.7324 8.48791 31.5801 10.0323 31.9837 12.3288C32.0387 12.6147 32.0827 12.9082 32.1194 13.2164C32.189 13.7702 32.2293 14.3683 32.2477 15.0064Z" fill="black"/>
</g>
</g>
<path d="M13.6263 8.1785C13.6263 8.1785 11.9251 13.9823 13.2143 15.5L17.1797 14.8699C17.1797 14.8699 16.7111 11.259 17.5567 10.2917C17.5567 10.2917 18.8159 10.381 18.8933 14.5397C18.8933 14.5397 27.1681 13.5321 32.9223 15.4697C32.9223 15.4697 33.9549 11.3536 33.1733 8.88722C33.1733 8.88722 26.0495 -0.471157 13.6263 8.1785Z" fill="#814F67"/>
<g opacity="0.300003">
<mask id="mask15_86_2" style="mask-type:luminance" maskUnits="userSpaceOnUse" x="12" y="6" width="21" height="3">
<path d="M12.6638 6.0667H32.5705V8.45978H12.6638V6.0667Z" fill="white"/>
</mask>
<g mask="url(#mask15_86_2)">
<path d="M28.039 8.20169C27.1728 8.27133 26.3072 8.35963 25.4409 8.40694L24.1346 8.44393C23.7017 8.45859 23.265 8.46959 22.8321 8.44726L21.5221 8.41094C21.0855 8.40328 20.6522 8.34497 20.2196 8.31565C19.346 8.26033 18.4837 8.11739 17.6141 8.0001C17.0634 7.90447 16.5131 7.79818 15.9628 7.67723C15.3975 7.55261 14.8363 7.41699 14.2783 7.25905C13.7353 7.10878 13.1997 6.94351 12.6641 6.76025C12.8107 6.51068 12.9684 6.27943 13.1374 6.06685C13.7977 6.33108 14.4729 6.56566 15.1519 6.77857C15.5959 6.91419 16.0398 7.04247 16.4875 7.15976C16.8984 7.26605 17.3094 7.36535 17.7204 7.46064C18.5643 7.62225 19.4083 7.80584 20.2632 7.90447C20.6925 7.95612 21.1185 8.03675 21.5515 8.06608L22.8431 8.17237C23.2724 8.22002 23.7053 8.23101 24.1383 8.23834L25.4372 8.27133C26.3035 8.26766 27.1694 8.22368 28.039 8.20169Z" fill="white"/>
</g>
<mask id="mask16_86_2" style="mask-type:luminance" maskUnits="userSpaceOnUse" x="12" y="6" width="21" height="3">
<path d="M12.6638 6.0667H32.5705V8.45978H12.6638V6.0667Z" fill="white"/>
</mask>
<g mask="url(#mask16_86_2)">
<path d="M32.5709 7.51211L31.8552 7.62573C31.8186 7.6294 31.7782 7.63673 31.7416 7.6404C31.1763 7.7137 30.6113 7.76901 30.046 7.82399C29.7857 7.85298 29.5251 7.87897 29.2644 7.90796C29.5141 7.86764 29.7674 7.82732 30.0167 7.78701C30.5453 7.70637 31.0736 7.62573 31.5983 7.53044C31.6752 7.51911 31.7562 7.50478 31.8332 7.49012L32.4679 7.35417C32.5009 7.40582 32.5342 7.4608 32.5709 7.51211Z" fill="white"/>
</g>
</g>
<path d="M31.1432 42.5702V42.6728H31.1362C31.1432 42.6398 31.1432 42.6065 31.1432 42.5702Z" fill="#7D5393"/>
<path d="M38.6512 45.4349H7.65125C7.65125 45.4349 9.16681 37.383 9.95576 36.0406C10.7484 34.6978 18.3589 29.2065 18.3589 29.2065C18.3589 29.2065 19.7641 30.637 22.0906 31.0955C22.4246 31.1578 22.7806 31.2018 23.1512 31.2204C23.3935 31.2094 23.6282 31.1871 23.8522 31.1545C26.395 30.7873 27.9436 29.2065 27.9436 29.2065C27.9436 29.2065 29.6351 30.4281 31.5103 31.8622C33.6055 33.4652 35.9284 35.3325 36.3467 36.0406C37.1356 37.383 38.6512 45.4349 38.6512 45.4349Z" fill="#9262AD"/>
<g opacity="0.600006">
<mask id="mask17_86_2" style="mask-type:luminance" maskUnits="userSpaceOnUse" x="22" y="31" width="2" height="15">
<path d="M22.0907 31.0957H23.8522V45.435H22.0907V31.0957Z" fill="white"/>
</mask>
<g mask="url(#mask17_86_2)">
<path d="M23.852 31.1541V45.4346H22.0905V31.0951C22.4244 31.1578 22.7804 31.2017 23.1511 31.2201C23.3934 31.2091 23.6284 31.1871 23.852 31.1541Z" fill="white"/>
</g>
</g>
<path d="M23.4632 33.5249C23.4632 33.7964 23.2429 34.0167 22.9712 34.0167C22.6996 34.0167 22.4796 33.7964 22.4796 33.5249C22.4796 33.2533 22.6996 33.033 22.9712 33.033C23.2429 33.033 23.4632 33.2533 23.4632 33.5249Z" fill="#7D5393"/>
<path d="M23.4632 38.0986C23.4632 38.3698 23.2429 38.5904 22.9712 38.5904C22.6996 38.5904 22.4796 38.3698 22.4796 38.0986C22.4796 37.827 22.6996 37.6068 22.9712 37.6068C23.2429 37.6068 23.4632 37.827 23.4632 38.0986Z" fill="#7D5393"/>
<path d="M23.4632 42.6724C23.4632 42.9436 23.2429 43.1642 22.9712 43.1642C22.6996 43.1642 22.4796 42.9436 22.4796 42.6724C22.4796 42.4008 22.6996 42.1802 22.9712 42.1802C23.2429 42.1802 23.4632 42.4008 23.4632 42.6724Z" fill="#7D5393"/>
<path d="M31.1432 39.1874V42.759C31.1432 42.792 31.1432 42.8216 31.1362 42.8513C31.0735 43.7203 30.0826 44.4117 28.872 44.4117C27.6611 44.4117 26.6701 43.7203 26.6078 42.8513C26.6005 42.8216 26.6005 42.792 26.6005 42.759V39.1874H31.1432Z" fill="#7D5393"/>
<path d="M26.6006 42.5702C26.6006 42.6065 26.6006 42.6398 26.6076 42.6728H26.6006V42.5702Z" fill="#7D5393"/>
<g opacity="0.100006">
<mask id="mask18_86_2" style="mask-type:luminance" maskUnits="userSpaceOnUse" x="7" y="29" width="25" height="17">
<path d="M7.651 29.2064H31.5101V45.435H7.651V29.2064Z" fill="white"/>
</mask>
<g mask="url(#mask18_86_2)">
<path d="M31.5105 31.8622C28.817 35.7173 17.504 35.1709 16.1645 38.4466C15.3315 40.4901 13.1483 43.3291 11.3831 45.4346H7.65137C7.65137 45.4346 7.75403 44.8918 7.91935 44.0628C8.38899 41.704 9.37225 37.0342 9.95588 36.0402C10.7482 34.6977 18.359 29.2062 18.359 29.2062C18.359 29.2062 20.1972 31.0805 23.1513 31.2201C26.1051 31.0805 27.9437 29.2062 27.9437 29.2062C27.9437 29.2062 28.6813 29.738 29.7196 30.512C30.2552 30.9119 30.8718 31.374 31.5105 31.8622Z" fill="black"/>
</g>
</g>
</svg>
