<svg width="47" height="48" viewBox="0 0 47 48" fill="none" xmlns="http://www.w3.org/2000/svg">
<g opacity="0.5">
<mask id="mask0_19_1623" style="mask-type:luminance" maskUnits="userSpaceOnUse" x="0" y="0" width="47" height="48">
<path d="M0 0.67495H46.6511V47.325H0V0.67495Z" fill="white"/>
</mask>
<g mask="url(#mask0_19_1623)">
<path d="M46.651 24.0003C46.651 36.8822 36.2078 47.3252 23.3256 47.3252C10.4429 47.3252 -0.000244141 36.8822 -0.000244141 24.0003C-0.000244141 11.118 10.4429 0.675347 23.3256 0.675347C36.2078 0.675347 46.651 11.118 46.651 24.0003Z" fill="#D87579"/>
</g>
</g>
<path d="M25.5883 29.9019H22.3745V26.2809H25.5883V29.9019Z" fill="#FECAB9"/>
<g opacity="0.300003">
<mask id="mask1_19_1623" style="mask-type:luminance" maskUnits="userSpaceOnUse" x="22" y="26" width="4" height="3">
<path d="M22.3745 26.2808H25.5882V28.4535H22.3745V26.2808Z" fill="white"/>
</mask>
<g mask="url(#mask1_19_1623)">
<path d="M25.5883 26.2808V27.7883C25.0381 28.1006 24.3043 28.4748 23.9814 28.4528C23.6845 28.4341 22.969 28.1222 22.3745 27.8436V26.2808H25.5883Z" fill="black"/>
</g>
</g>
<path d="M36.4997 15.2599L36.1282 19.7193C36.0285 20.9033 34.9865 21.7844 33.8028 21.6848C32.6765 21.5888 31.8261 20.6424 31.8297 19.5314C31.8297 19.478 31.8337 19.4167 31.8374 19.3631L32.2129 14.9C32.3049 13.7777 33.2473 12.9269 34.3507 12.9269C34.4117 12.9269 34.473 12.9309 34.5346 12.9346C35.2241 12.9919 35.8103 13.3714 36.1588 13.9116C36.4118 14.2948 36.5417 14.766 36.4997 15.2599Z" fill="#30335D"/>
<path d="M36.5037 15.2098C36.5037 15.2251 36.4997 15.2445 36.4997 15.2595L36.1282 19.7189C36.1245 19.7805 36.1169 19.8378 36.1052 19.8955C35.9212 20.9912 34.9252 21.7803 33.8028 21.6847C32.6765 21.5887 31.8261 20.6423 31.8297 19.5313C34.7989 19.1634 35.8486 15.4704 36.1588 13.9115C36.4041 14.2827 36.5344 14.7349 36.5037 15.2098Z" fill="#292C47"/>
<g opacity="0.600006">
<mask id="mask2_19_1623" style="mask-type:luminance" maskUnits="userSpaceOnUse" x="35" y="15" width="2" height="5">
<path d="M35.7679 15.21H36.5047V19.8953H35.7679V15.21Z" fill="white"/>
</mask>
<g mask="url(#mask2_19_1623)">
<path d="M36.5045 15.2099C36.5045 15.2252 36.5005 15.2445 36.5005 15.2595L36.1289 19.719C36.1252 19.7806 36.1176 19.8379 36.1059 19.8956C35.8953 19.8303 35.7537 19.6273 35.7687 19.401L36.0676 15.6468C36.0869 15.4128 36.2745 15.2252 36.5045 15.2099Z" fill="#E5E5E5"/>
</g>
</g>
<path d="M11.1513 15.2599L11.5229 19.7193C11.6225 20.9033 12.6649 21.7844 13.8486 21.6848C14.9749 21.5888 15.8253 20.6424 15.8213 19.5314C15.8213 19.478 15.8177 19.4167 15.8137 19.3631L15.4385 14.9C15.3465 13.7777 14.4041 12.9269 13.3007 12.9269C13.2394 12.9269 13.1781 12.9309 13.1168 12.9346C12.4273 12.9919 11.8408 13.3714 11.4922 13.9116C11.2396 14.2948 11.1093 14.766 11.1513 15.2599Z" fill="#30335D"/>
<path d="M11.1475 15.2098C11.1475 15.2251 11.1512 15.2445 11.1512 15.2595L11.5227 19.7189C11.5267 19.7805 11.5344 19.8378 11.5457 19.8955C11.73 20.9912 12.7257 21.7803 13.8484 21.6847C14.9747 21.5887 15.8252 20.6423 15.8212 19.5313C12.8523 19.1634 11.8026 15.4704 11.4924 13.9115C11.2471 14.2827 11.1168 14.7349 11.1475 15.2098Z" fill="#292C47"/>
<g opacity="0.600006">
<mask id="mask3_19_1623" style="mask-type:luminance" maskUnits="userSpaceOnUse" x="11" y="15" width="1" height="6">
<path d="M11.1472 15.574H11.8839V20.2593H11.1472V15.574Z" fill="white"/>
</mask>
<g mask="url(#mask3_19_1623)">
<path d="M11.1473 15.5739C11.1473 15.5892 11.151 15.6086 11.151 15.6236L11.5226 20.083C11.5266 20.1446 11.5342 20.2019 11.5456 20.2596C11.7565 20.1943 11.8981 19.9913 11.8828 19.7651L11.5842 16.0108C11.5649 15.7768 11.3769 15.5892 11.1473 15.5739Z" fill="#E5E5E5"/>
</g>
</g>
<path d="M33.0834 13.4209C33.0834 13.4209 33.0374 14.03 32.9494 14.9264C32.9304 15.1254 32.9071 15.3363 32.8841 15.5623C32.8728 15.6809 32.8574 15.8075 32.8461 15.9338C32.7005 17.2251 32.4972 18.7917 32.2406 20.0293C32.0567 20.9107 31.8461 21.6269 31.6121 21.9641C30.6774 23.3007 26.0727 27.117 23.774 27.5729C21.4716 27.117 16.8706 23.3007 15.9355 21.9641C15.6983 21.6229 15.4873 20.8914 15.2997 19.995C15.1158 19.0983 14.9588 18.0332 14.8322 17.0255C14.7365 16.2711 14.6599 15.5469 14.6026 14.9494C14.5986 14.8994 14.5909 14.8498 14.5872 14.8001C14.5143 14.0453 14.4723 13.5205 14.4646 13.4322V13.4209C14.5372 10.666 15.1044 8.69318 15.9242 7.28724C16.0505 7.07264 16.1808 6.8697 16.3187 6.68175C17.9853 4.36807 20.4179 3.91986 22.0461 3.91986C23.0692 3.91986 23.774 4.09614 23.774 4.09614C23.774 4.09614 23.8313 4.08081 23.9386 4.06149C24.2032 4.00783 24.7737 3.91986 25.5018 3.91986C25.7431 3.91986 26.0037 3.93119 26.2756 3.95418C27.5976 4.07282 29.2178 4.53269 30.5474 5.87364C31.5665 6.90036 32.4129 8.44425 32.8191 10.7429C32.8728 11.0262 32.9188 11.3214 32.9531 11.6277C33.0221 12.1832 33.0644 12.781 33.0834 13.4209Z" fill="#FED6C9"/>
<g opacity="0.300003">
<mask id="mask4_19_1623" style="mask-type:luminance" maskUnits="userSpaceOnUse" x="14" y="3" width="20" height="13">
<path d="M14.4646 3.37578H33.0836V15.9816H14.4646V3.37578Z" fill="white"/>
</mask>
<g mask="url(#mask4_19_1623)">
<path d="M33.0835 13.4207C33.0835 13.4207 33.0375 14.0299 32.9495 14.9263C32.9305 15.1253 32.9072 15.3362 32.8842 15.5621C32.8729 15.6808 32.8576 15.8074 32.8462 15.9337C31.191 16.4432 29.9767 12.685 29.9767 12.685C26.3371 15.8804 26.4137 10.0607 26.4137 10.0607C22.989 12.7656 22.828 11.168 22.828 11.168C19.468 14.1026 19.0928 12.8459 19.0928 12.8459C16.1273 16.0257 14.775 14.7041 14.775 14.7041C14.7213 14.7537 14.6563 14.7884 14.5874 14.8C14.5144 14.0452 14.4724 13.5204 14.4647 13.4321V13.4207C14.5374 10.6659 15.1045 8.69308 15.9243 7.28714L16.1579 7.15685L23.9387 4.06138L25.6666 3.37558L26.2757 3.95408L31.8308 9.24493C31.8308 9.24493 32.3134 9.86942 32.8192 10.7428C32.8729 11.0261 32.9189 11.3213 32.9532 11.6276C33.0222 12.1831 33.0645 12.7809 33.0835 13.4207Z" fill="black"/>
</g>
</g>
<path d="M33.8916 13.5667C33.8879 13.582 33.8839 13.6014 33.8763 13.6163V13.6203C33.6657 14.3445 33.3478 14.8807 32.9339 15.0913C32.9109 15.1069 32.8842 15.1183 32.8572 15.1296C31.0987 15.8464 30.1487 11.13 30.1487 11.13C30.1487 11.13 29.4935 12.3984 28.4135 12.8656C27.3328 13.3291 26.8886 8.5671 26.8886 8.5671C26.8886 8.5671 24.9001 10.5132 23.8008 10.8964C22.6974 11.2757 23.8008 9.05363 23.8008 9.05363C19.6516 14.0266 19.2301 11.7852 19.2301 11.7852C15.8857 15.8041 14.9126 13.9423 14.9126 13.9423C14.7746 14.0306 14.6447 14.0955 14.5294 14.1452C14.1348 14.3138 13.8669 14.2828 13.6829 14.1682C13.6829 14.1682 13.6176 14.1452 13.5337 14.0379C13.388 13.8733 13.3267 13.6623 13.3074 13.5667C13.3037 13.532 13.2997 13.513 13.2997 13.513C13.2997 13.5054 13.2961 13.4977 13.2961 13.4904C13.2921 13.4864 13.2921 13.4824 13.2921 13.4751C13.2347 13.1185 13.1887 12.7816 13.1544 12.4517C13.1544 12.4483 13.1504 12.4443 13.1504 12.4363C13.0778 11.7852 13.0391 11.18 13.0315 10.6132C13.0125 8.41014 13.4647 6.7936 14.1235 5.64792C14.2501 5.42565 14.3837 5.21871 14.522 5.02743C16.4222 2.40683 19.4793 2.38783 19.5673 2.38783C24.3716 -0.8076 29.7884 2.55646 32.2864 5.31101C32.3287 5.35667 32.3707 5.40266 32.4054 5.45231C32.459 5.50996 32.5047 5.56761 32.547 5.62493C33.2328 6.51768 33.6887 7.70134 33.9336 8.92733C34.2748 10.5939 34.2365 12.3407 33.8916 13.5667Z" fill="#814F67"/>
<path d="M33.9339 8.9271C33.4244 7.7431 32.7309 6.66274 31.8881 5.728C31.8498 5.68235 31.8038 5.63603 31.7618 5.59004C29.7391 3.40666 26.9039 2.05037 23.7741 2.05037C20.7283 2.05037 17.9624 3.33768 15.9509 5.41776C15.7823 5.59004 15.6214 5.76666 15.4721 5.95027C14.3381 7.2719 13.4953 8.85812 13.0318 10.613C12.7868 11.5554 12.6485 12.5438 12.6372 13.5665H14.1351C14.1544 12.1029 14.4684 10.7123 15.0162 9.46329C15.0162 9.45962 15.0202 9.45962 15.0202 9.45562C15.5487 8.23763 16.3035 7.15327 17.2266 6.25319C17.3875 6.0959 17.5525 5.94661 17.7211 5.80098C18.6635 5.00021 19.7475 4.37972 20.9312 3.99649C20.9352 3.99249 20.9389 3.99249 20.9429 3.99249C21.8393 3.70157 22.7893 3.54462 23.7741 3.54462C24.7548 3.54462 25.7009 3.69791 26.5936 3.98882C27.8349 4.38738 28.9726 5.04619 29.9497 5.90462C29.969 5.91995 29.988 5.93861 30.007 5.95794C31.0607 6.89667 31.9224 8.07301 32.5126 9.40964C33.0758 10.6739 33.3977 12.0839 33.4167 13.5665H34.9146C34.8956 11.9153 34.5507 10.3447 33.9339 8.9271Z" fill="#30335D"/>
<path d="M19.6849 3.92156C19.6849 3.92156 21.1472 2.65825 24.1467 2.91918C27.1465 3.17977 34.1699 4.40276 33.8763 13.6195L31.8902 13.8578L29.5895 7.92077L21.1042 8.00542L16.1259 11.755L13.6813 14.166C13.6813 14.166 13.1141 13.9721 13.1428 11.873C13.1711 9.78558 16.5172 3.37572 19.6849 3.92156Z" fill="#814F67"/>
<g opacity="0.100006">
<mask id="mask5_19_1623" style="mask-type:luminance" maskUnits="userSpaceOnUse" x="13" y="1" width="17" height="14">
<path d="M13.0314 1.088H29.2182V14.262H13.0314V1.088Z" fill="white"/>
</mask>
<g mask="url(#mask5_19_1623)">
<path d="M29.2182 2.78237C26.5746 1.35744 23.2725 0.736613 20.2191 2.76704C20.1308 2.76704 17.074 2.78637 15.1735 5.40663C15.0355 5.59824 14.9016 5.80485 14.7753 6.02712C14.1161 7.1728 13.6642 8.78935 13.6832 10.9924C13.6909 11.5592 13.7292 12.1644 13.8022 12.8159C13.8022 12.8235 13.8059 12.8275 13.8059 12.8312C13.8405 13.1608 13.8865 13.4977 13.9438 13.8543C13.9438 13.8619 13.9438 13.8656 13.9475 13.8696C13.9475 13.8772 13.9515 13.8846 13.9515 13.8926C13.9515 13.8926 13.9552 13.9116 13.9592 13.9462C13.9708 14.0112 14.0052 14.1375 14.0741 14.2601C13.9132 14.2718 13.7869 14.2331 13.6832 14.1682C13.6832 14.1682 13.6183 14.1455 13.5339 14.0379C13.3883 13.8732 13.327 13.6623 13.3077 13.5667C13.304 13.5323 13.3 13.513 13.3 13.513C13.3 13.5057 13.2963 13.4977 13.2963 13.4904C13.2924 13.4864 13.2924 13.4824 13.2924 13.475C13.235 13.1188 13.189 12.7816 13.1547 12.452C13.1547 12.4483 13.1507 12.4443 13.1507 12.4367C13.0781 11.7855 13.0398 11.18 13.0321 10.6132C13.0128 8.41045 13.465 6.79358 14.1241 5.64823C14.2504 5.42596 14.3844 5.21902 14.5223 5.0274C16.4225 2.40681 19.4796 2.38781 19.5679 2.38781C22.878 0.185102 26.479 1.10051 29.2182 2.78237Z" fill="black"/>
</g>
</g>
<g opacity="0.300003">
<mask id="mask6_19_1623" style="mask-type:luminance" maskUnits="userSpaceOnUse" x="14" y="5" width="19" height="2">
<path d="M14.1244 5.02686H32.5478V6.65674H14.1244V5.02686Z" fill="white"/>
</mask>
<g mask="url(#mask6_19_1623)">
<path d="M27.5523 6.38701C26.6482 6.45966 25.7442 6.55163 24.8401 6.60528L23.4798 6.63994C23.0239 6.65527 22.568 6.6666 22.1162 6.64394L20.7522 6.60528C20.2964 6.59762 19.8441 6.5363 19.3883 6.50565C18.6645 6.45966 17.948 6.35635 17.2275 6.25305C17.0593 6.22972 16.8866 6.20673 16.718 6.18407C16.7027 6.18007 16.6874 6.18007 16.672 6.17607C16.4118 6.13008 16.1549 6.08443 15.8946 6.03444C15.7526 6.00745 15.6147 5.98079 15.473 5.95013C15.0212 5.85816 14.5726 5.75852 14.1248 5.64755C14.2511 5.42528 14.385 5.21834 14.523 5.02706C14.9942 5.16502 15.473 5.29532 15.9519 5.41762C16.0859 5.44861 16.2202 5.48293 16.3541 5.51359C16.4958 5.54791 16.6377 5.58257 16.7793 5.61323C16.9173 5.63989 17.0516 5.66688 17.1892 5.69354C17.3655 5.72786 17.5458 5.76252 17.7217 5.80084C18.2889 5.90815 18.8598 6.01145 19.4383 6.07643C19.8825 6.13008 20.327 6.21439 20.7789 6.24905L22.1275 6.35635C22.5757 6.40634 23.0279 6.41767 23.4798 6.425L24.8361 6.45966C25.7402 6.45599 26.6442 6.40967 27.5523 6.38701Z" fill="white"/>
</g>
<mask id="mask7_19_1623" style="mask-type:luminance" maskUnits="userSpaceOnUse" x="14" y="5" width="19" height="2">
<path d="M14.1244 5.02686H32.5478V6.65674H14.1244V5.02686Z" fill="white"/>
</mask>
<g mask="url(#mask7_19_1623)">
<path d="M32.546 5.62451L31.8872 5.72815L31.5347 5.78547C31.458 5.79713 31.3854 5.80446 31.3087 5.81213C31.0635 5.84678 30.8182 5.87344 30.5693 5.89644C30.3813 5.91976 30.1937 5.93842 30.0061 5.95775C29.6155 6.00007 29.2206 6.0384 28.8301 6.08038C29.2016 6.0194 29.5769 5.96175 29.9488 5.90443C30.1287 5.87744 30.3087 5.84678 30.4889 5.81979C30.7225 5.7818 30.9601 5.74314 31.1937 5.70116C31.3011 5.68216 31.4044 5.66283 31.5117 5.64384L31.7609 5.58985L32.4044 5.45189C32.4581 5.50954 32.504 5.56719 32.546 5.62451Z" fill="white"/>
</g>
</g>
<path d="M20.3946 16.6004C20.3946 16.9923 20.077 17.3096 19.6855 17.3096C19.2936 17.3096 18.9763 16.9923 18.9763 16.6004C18.9763 16.2089 19.2936 15.8913 19.6855 15.8913C20.077 15.8913 20.3946 16.2089 20.3946 16.6004Z" fill="#57434C"/>
<path d="M20.3943 13.9149C20.3537 13.9149 20.313 13.9059 20.2747 13.8866C19.6925 13.595 19.1023 13.8839 19.096 13.8866C18.9634 13.9519 18.8024 13.8993 18.7361 13.7666C18.6701 13.634 18.7238 13.473 18.8561 13.4071C18.8904 13.3897 19.6952 12.9972 20.5143 13.4071C20.6469 13.473 20.7002 13.634 20.6342 13.7666C20.5873 13.8606 20.4926 13.9149 20.3943 13.9149Z" fill="#57434C"/>
<path d="M28.3442 16.6004C28.3442 16.9923 28.0266 17.3096 27.635 17.3096C27.2435 17.3096 26.9259 16.9923 26.9259 16.6004C26.9259 16.2089 27.2435 15.8913 27.635 15.8913C28.0266 15.8913 28.3442 16.2089 28.3442 16.6004Z" fill="#57434C"/>
<path d="M28.3424 13.9149C28.3021 13.9149 28.2611 13.9059 28.2228 13.8866C27.6406 13.595 27.0505 13.8839 27.0441 13.8866C26.9115 13.9519 26.7509 13.8993 26.6846 13.7666C26.6182 13.634 26.6719 13.473 26.8042 13.4071C26.8385 13.3897 27.6436 12.9972 28.4624 13.4071C28.595 13.473 28.6487 13.634 28.5824 13.7666C28.5354 13.8606 28.4407 13.9149 28.3424 13.9149Z" fill="#57434C"/>
<g opacity="0.699997">
<mask id="mask8_19_1623" style="mask-type:luminance" maskUnits="userSpaceOnUse" x="23" y="18" width="2" height="2">
<path d="M23.1069 18.0472H24.8703V19.631H23.1069V18.0472Z" fill="white"/>
</mask>
<g mask="url(#mask8_19_1623)">
<path d="M24.6494 19.6307H23.3311C23.1565 19.6307 23.0525 19.4465 23.1375 19.3002L23.7943 18.1565C23.8793 18.0102 24.0965 18.0102 24.1815 18.1565L24.8383 19.3002C24.928 19.4465 24.8193 19.6307 24.6494 19.6307Z" fill="black"/>
</g>
</g>
<g opacity="0.399994">
<mask id="mask9_19_1623" style="mask-type:luminance" maskUnits="userSpaceOnUse" x="16" y="18" width="3" height="3">
<path d="M16.4803 18.1859H18.9746V20.6802H16.4803V18.1859Z" fill="white"/>
</mask>
<g mask="url(#mask9_19_1623)">
<path d="M18.9745 19.4333C18.9745 20.1217 18.4163 20.6802 17.7275 20.6802C17.0387 20.6802 16.4802 20.1217 16.4802 19.4333C16.4802 18.7444 17.0387 18.1863 17.7275 18.1863C18.4163 18.1863 18.9745 18.7444 18.9745 19.4333Z" fill="#9C005C"/>
</g>
</g>
<g opacity="0.399994">
<mask id="mask10_19_1623" style="mask-type:luminance" maskUnits="userSpaceOnUse" x="16" y="19" width="3" height="1">
<path d="M16.8413 19.1389H18.6177V19.7287H16.8413V19.1389Z" fill="white"/>
</mask>
<g mask="url(#mask10_19_1623)">
<path d="M16.9107 19.7284C16.8953 19.7284 16.88 19.7234 16.8674 19.7131C16.837 19.6891 16.8324 19.6454 16.8564 19.6154L17.2186 19.1646C17.2429 19.1349 17.2866 19.1299 17.3166 19.1539C17.3462 19.1779 17.3512 19.2215 17.3269 19.2515L16.965 19.7027C16.951 19.7197 16.931 19.7284 16.9107 19.7284Z" fill="#9C005C"/>
</g>
<mask id="mask11_19_1623" style="mask-type:luminance" maskUnits="userSpaceOnUse" x="16" y="19" width="3" height="1">
<path d="M16.8413 19.1389H18.6177V19.7287H16.8413V19.1389Z" fill="white"/>
</mask>
<g mask="url(#mask11_19_1623)">
<path d="M17.5485 19.7286C17.5332 19.7286 17.5179 19.7236 17.5049 19.7133C17.4749 19.6893 17.4702 19.6457 17.4942 19.6157L17.8564 19.1648C17.8808 19.1351 17.9244 19.1301 17.9544 19.1541C17.9841 19.1781 17.9887 19.2218 17.9647 19.2518L17.6025 19.703C17.5888 19.72 17.5688 19.7286 17.5485 19.7286Z" fill="#9C005C"/>
</g>
<mask id="mask12_19_1623" style="mask-type:luminance" maskUnits="userSpaceOnUse" x="16" y="19" width="3" height="1">
<path d="M16.8413 19.1389H18.6177V19.7287H16.8413V19.1389Z" fill="white"/>
</mask>
<g mask="url(#mask12_19_1623)">
<path d="M18.1861 19.7286C18.1708 19.7286 18.1555 19.7236 18.1428 19.7133C18.1128 19.6893 18.1081 19.6457 18.1321 19.6157L18.4944 19.1648C18.5187 19.1351 18.5624 19.1301 18.592 19.1541C18.622 19.1781 18.6267 19.2218 18.6027 19.2518L18.2404 19.703C18.2264 19.72 18.2065 19.7286 18.1861 19.7286Z" fill="#9C005C"/>
</g>
</g>
<g opacity="0.399994">
<mask id="mask13_19_1623" style="mask-type:luminance" maskUnits="userSpaceOnUse" x="28" y="18" width="3" height="3">
<path d="M28.3431 18.1859H30.8374V20.6802H28.3431V18.1859Z" fill="white"/>
</mask>
<g mask="url(#mask13_19_1623)">
<path d="M30.8372 19.4333C30.8372 20.1217 30.2787 20.6802 29.5899 20.6802C28.9011 20.6802 28.3429 20.1217 28.3429 19.4333C28.3429 18.7444 28.9011 18.1863 29.5899 18.1863C30.2787 18.1863 30.8372 18.7444 30.8372 19.4333Z" fill="#9C005C"/>
</g>
</g>
<g opacity="0.399994">
<mask id="mask14_19_1623" style="mask-type:luminance" maskUnits="userSpaceOnUse" x="28" y="19" width="3" height="1">
<path d="M28.7021 19.1389H30.4786V19.7287H28.7021V19.1389Z" fill="white"/>
</mask>
<g mask="url(#mask14_19_1623)">
<path d="M28.7714 19.7284C28.7561 19.7284 28.7407 19.7234 28.7281 19.7131C28.6977 19.6891 28.6931 19.6454 28.7171 19.6154L29.0793 19.1646C29.1036 19.1349 29.1473 19.1299 29.1773 19.1539C29.2069 19.1779 29.2119 19.2215 29.1879 19.2515L28.8254 19.7027C28.8117 19.7197 28.7917 19.7284 28.7714 19.7284Z" fill="#9C005C"/>
</g>
<mask id="mask15_19_1623" style="mask-type:luminance" maskUnits="userSpaceOnUse" x="28" y="19" width="3" height="1">
<path d="M28.7021 19.1389H30.4786V19.7287H28.7021V19.1389Z" fill="white"/>
</mask>
<g mask="url(#mask15_19_1623)">
<path d="M29.4079 19.7286C29.3929 19.7286 29.3773 19.7236 29.3646 19.7133C29.3346 19.6893 29.3299 19.6457 29.3539 19.6157L29.7162 19.1648C29.7405 19.1351 29.7842 19.1301 29.8138 19.1541C29.8438 19.1781 29.8485 19.2218 29.8245 19.2518L29.4622 19.703C29.4486 19.72 29.4286 19.7286 29.4079 19.7286Z" fill="#9C005C"/>
</g>
<mask id="mask16_19_1623" style="mask-type:luminance" maskUnits="userSpaceOnUse" x="28" y="19" width="3" height="1">
<path d="M28.7021 19.1389H30.4786V19.7287H28.7021V19.1389Z" fill="white"/>
</mask>
<g mask="url(#mask16_19_1623)">
<path d="M30.0467 19.7286C30.0314 19.7286 30.016 19.7236 30.0034 19.7133C29.9734 19.6893 29.9684 19.6457 29.9924 19.6157L30.3549 19.1648C30.3793 19.1351 30.4229 19.1301 30.4526 19.1541C30.4826 19.1781 30.4872 19.2218 30.4632 19.2518L30.101 19.703C30.087 19.72 30.067 19.7286 30.0467 19.7286Z" fill="#9C005C"/>
</g>
</g>
<path d="M25.9259 21.5981C25.8153 22.0823 24.9899 22.4586 23.9885 22.4586C22.9911 22.4586 22.1613 22.0823 22.051 21.5981H25.9259Z" fill="#E58191"/>
<path d="M39.4788 43.8488V43.8524H8.48584L8.48917 43.8488C8.49317 43.8154 8.59181 43.2986 8.7461 42.5208C8.82308 42.1282 8.91838 41.662 9.02502 41.1632L9.03968 41.0899C9.11666 40.7193 9.1973 40.3267 9.28561 39.9305L9.30727 39.8352C9.40291 39.3873 9.50555 38.9288 9.60819 38.4779C9.71083 38.0191 9.81746 37.5715 9.92743 37.146C10.0521 36.6505 10.1734 36.1919 10.2943 35.7887C10.4739 35.1832 10.6429 34.71 10.7859 34.4604C10.7895 34.4604 10.7895 34.4567 10.7895 34.4567C10.9621 34.1668 11.4537 33.6826 12.1138 33.1031C12.58 32.6959 13.1265 32.241 13.7097 31.7752C14.2712 31.3236 14.8617 30.8651 15.4415 30.4175C16.0617 29.9443 16.6632 29.4895 17.1987 29.0896C18.2957 28.2715 19.1102 27.6807 19.1835 27.6257C19.1872 27.6223 19.1908 27.6223 19.1908 27.6223C19.1908 27.6223 20.0419 28.4914 21.5168 29.0896C22.2103 29.3722 23.0394 29.5921 23.9821 29.6364C24.9252 29.5921 25.7543 29.3722 26.4478 29.0896C27.9224 28.4914 28.7735 27.6223 28.7735 27.6223C28.7735 27.6223 29.6136 28.2275 30.7656 29.0896C31.2498 29.4492 31.7856 29.8527 32.3395 30.2782C32.3981 30.3222 32.4568 30.3699 32.5194 30.4175C33.0989 30.8614 33.6934 31.3236 34.2546 31.7752C34.8378 32.2447 35.3883 32.6996 35.8541 33.1031C36.5143 33.6826 37.0025 34.1668 37.1748 34.4567C37.1748 34.4567 37.1748 34.4604 37.1784 34.4604C37.3214 34.71 37.4903 35.1832 37.67 35.7887C37.7913 36.1919 37.9122 36.6505 38.0368 37.146C38.1472 37.5715 38.2535 38.0191 38.3561 38.4779C38.4587 38.9288 38.5617 39.3873 38.657 39.8352C38.7596 40.2938 38.855 40.7413 38.9396 41.1632C39.0459 41.662 39.1412 42.1282 39.2182 42.5208C39.3725 43.2986 39.4714 43.8154 39.4788 43.8488Z" fill="#363B6B"/>
<mask id="mask17_19_1623" style="mask-type:luminance" maskUnits="userSpaceOnUse" x="15" y="29" width="18" height="2">
<path d="M15.4413 29.0894H32.5191V30.4174H15.4413V29.0894Z" fill="white"/>
</mask>
<g mask="url(#mask17_19_1623)">
<path d="M32.519 30.4172H15.4412C16.0613 29.944 16.6628 29.4892 17.1983 29.0893H21.5165C22.2099 29.3715 23.039 29.5915 23.9818 29.6358C24.9248 29.5915 25.7539 29.3715 26.4474 29.0893H30.7652C31.2494 29.4488 31.7852 29.8524 32.3391 30.2779C32.3981 30.3219 32.4567 30.3692 32.519 30.4172Z" fill="white"/>
</g>
<mask id="mask18_19_1623" style="mask-type:luminance" maskUnits="userSpaceOnUse" x="12" y="32" width="24" height="2">
<path d="M12.1136 32.1389H35.8537V33.4672H12.1136V32.1389Z" fill="white"/>
</mask>
<g mask="url(#mask18_19_1623)">
<path d="M35.8536 33.4668H12.1133C12.5795 33.0596 13.126 32.6047 13.7092 32.1388H34.2541C34.8372 32.6084 35.3877 33.0632 35.8536 33.4668Z" fill="white"/>
</g>
<mask id="mask19_19_1623" style="mask-type:luminance" maskUnits="userSpaceOnUse" x="10" y="34" width="28" height="2">
<path d="M10.2942 34.4604H37.6701V35.7883H10.2942V34.4604Z" fill="white"/>
</mask>
<g mask="url(#mask19_19_1623)">
<path d="M37.6699 35.7884H10.2943C10.4739 35.1832 10.6429 34.71 10.7858 34.4604H37.1784C37.3214 34.71 37.4903 35.1832 37.6699 35.7884Z" fill="white"/>
</g>
<mask id="mask20_19_1623" style="mask-type:luminance" maskUnits="userSpaceOnUse" x="9" y="37" width="30" height="2">
<path d="M9.60815 37.1461H38.3559V38.4777H9.60815V37.1461Z" fill="white"/>
</mask>
<g mask="url(#mask20_19_1623)">
<path d="M38.3561 38.478H9.60815C9.71079 38.0191 9.8171 37.5716 9.9274 37.146H38.0368C38.1471 37.5716 38.2531 38.0191 38.3561 38.478Z" fill="white"/>
</g>
<mask id="mask21_19_1623" style="mask-type:luminance" maskUnits="userSpaceOnUse" x="9" y="39" width="30" height="3">
<path d="M9.02478 39.835H38.9393V41.1631H9.02478V39.835Z" fill="white"/>
</mask>
<g mask="url(#mask21_19_1623)">
<path d="M38.9393 41.1633H9.02478L9.03944 41.0897L9.28537 39.9307L9.30737 39.8354H38.6568C38.7594 40.2939 38.855 40.7411 38.9393 41.1633Z" fill="white"/>
</g>
<mask id="mask22_19_1623" style="mask-type:luminance" maskUnits="userSpaceOnUse" x="8" y="42" width="32" height="2">
<path d="M8.48926 42.5204H39.4786V43.8484H8.48926V42.5204Z" fill="white"/>
</mask>
<g mask="url(#mask22_19_1623)">
<path d="M39.4785 43.8485H8.48889C8.49289 43.8152 8.59153 43.2983 8.74582 42.5206H39.2179C39.3722 43.2983 39.4712 43.8152 39.4785 43.8485Z" fill="white"/>
</g>
<path d="M19.1838 27.6256V43.8521H8.48584C8.48584 43.8521 10.0011 35.7993 10.7899 34.4567C11.5713 33.1361 18.9562 27.7942 19.1838 27.6256Z" fill="#597ED4"/>
<path d="M28.7854 27.6215V43.848H39.4834C39.4834 43.848 37.9681 35.7952 37.1794 34.4526C36.3979 33.132 29.013 27.7905 28.7854 27.6215Z" fill="#597ED4"/>
<g opacity="0.100006">
<mask id="mask23_19_1623" style="mask-type:luminance" maskUnits="userSpaceOnUse" x="8" y="27" width="25" height="17">
<path d="M8.48926 27.62H32.3433V43.8502H8.48926V27.62Z" fill="white"/>
</mask>
<g mask="url(#mask23_19_1623)">
<path d="M32.3431 30.2757C29.6502 34.1316 18.3397 33.5851 17.0004 36.8612C16.1676 38.9046 13.9849 41.7442 12.2201 43.8499H8.48914C8.48914 43.8499 8.59211 43.3067 8.75706 42.478C9.2266 40.119 10.21 35.4486 10.7932 34.4546C11.5856 33.1119 19.1945 27.6195 19.1945 27.6195C19.1945 27.6195 21.0326 29.4943 23.9858 29.6336C26.939 29.4943 28.7771 27.6195 28.7771 27.6195C28.7771 27.6195 29.5146 28.1517 30.5526 28.9258C31.0885 29.3253 31.7046 29.7879 32.3431 30.2757Z" fill="black"/>
</g>
</g>
<g opacity="0.100006">
<mask id="mask24_19_1623" style="mask-type:luminance" maskUnits="userSpaceOnUse" x="8" y="27" width="23" height="16">
<path d="M8.75745 27.6199H30.5532V42.478H8.75745V27.6199Z" fill="white"/>
</mask>
<g mask="url(#mask24_19_1623)">
<path d="M30.5531 28.9262C25.1086 31.6924 14.8508 31.8061 13.4239 35.3061C12.5765 37.3825 10.6503 40.0937 8.7572 42.4784C9.22674 40.1194 10.2101 35.449 10.7936 34.455C11.5861 33.1124 19.1949 27.6199 19.1949 27.6199C19.1949 27.6199 21.0328 29.4947 23.9859 29.634C26.9394 29.4947 28.7772 27.6199 28.7772 27.6199C28.7772 27.6199 29.5147 28.1521 30.5531 28.9262Z" fill="black"/>
</g>
</g>
<path d="M23.8491 43.8522C23.7811 43.8522 23.7218 43.8016 23.7108 43.7303C23.2909 40.9564 21.0702 36.334 16.1936 32.4374C11.6928 28.8411 13.363 20.4538 13.3807 20.3692C13.3963 20.2919 13.472 20.2432 13.5466 20.2582C13.6223 20.2749 13.6706 20.3515 13.6546 20.4295C13.6376 20.5121 12.0041 28.7248 16.3652 32.2098C21.3068 36.1581 23.5598 40.8601 23.9877 43.6859C23.9997 43.7643 23.947 43.8382 23.8707 43.8502C23.8634 43.8519 23.8561 43.8522 23.8491 43.8522Z" fill="#292C47"/>
<path d="M24.1293 43.8522C24.1973 43.8522 24.257 43.8016 24.2676 43.7303C24.6875 40.9564 26.9082 36.334 31.7849 32.4374C36.2856 28.8411 34.6154 20.4538 34.5981 20.3692C34.5821 20.2919 34.5064 20.2432 34.4321 20.2582C34.3561 20.2749 34.3078 20.3515 34.3238 20.4295C34.3408 20.5121 35.9747 28.7248 31.6132 32.2098C26.6716 36.1581 24.4186 40.8601 23.9907 43.6859C23.9787 43.7643 24.0314 43.8382 24.1077 43.8502C24.115 43.8519 24.1223 43.8522 24.1293 43.8522Z" fill="#292C47"/>
</svg>
