<svg width="100" height="125" viewBox="0 0 100 125" fill="none" xmlns="http://www.w3.org/2000/svg">
<g opacity="0.5">
<mask id="mask0_10_16" style="mask-type:luminance" maskUnits="userSpaceOnUse" x="0" y="0" width="100" height="117">
<path d="M0 0H100V116.108H0V0Z" fill="white"/>
</mask>
<g mask="url(#mask0_10_16)">
<path d="M99.9994 58.0543C99.9994 90.1164 77.6138 116.108 49.9998 116.108C22.3859 116.108 0.000244141 90.1164 0.000244141 58.0543C0.000244141 25.9914 22.3859 0.000526428 49.9998 0.000526428C77.6138 0.000526428 99.9994 25.9914 99.9994 58.0543Z" fill="#E781A1"/>
</g>
</g>
<path d="M60.7399 103.885C60.4492 103.848 60.2996 103.754 60.2996 103.754L60.7399 103.885Z" fill="#814F67"/>
<path d="M74.5927 95.2747C74.5927 95.2747 73.723 94.5724 72.1605 93.627C76.0345 84.5386 77.1108 73.6818 77.1108 73.6818C74.7058 82.1241 72.4691 88.2445 70.4661 92.6629C63.9142 89.1712 50.3903 84.5947 35.9959 95.284C32.8045 91.5118 28.6304 85.5027 23.4259 75.9271C23.5381 76.4049 26.5986 88.2819 34.9196 96.1164C34.8346 96.1733 34.7607 96.2388 34.6757 96.3043C34.6757 96.3043 19.3453 93.3278 18.2129 64.2371C17.5294 46.7344 18.8496 33.4809 23.2388 26.1898C23.6138 25.553 24.0159 24.9638 24.446 24.4205C27.2821 20.8268 31.1663 19.254 36.3045 20.0217C36.3045 20.0217 53.8623 8.574 70.0538 23.232C71.4387 24.4775 72.6646 25.984 73.7511 27.7056C73.8344 27.8374 73.9194 27.9777 74.0129 28.1086C85.3749 46.7531 80.9193 88.7971 74.5927 95.2747Z" fill="#814F67"/>
<g opacity="0.100006">
<mask id="mask1_10_16" style="mask-type:luminance" maskUnits="userSpaceOnUse" x="18" y="15" width="51" height="81">
<path d="M18.0433 15.7666H68.4161V95.0401H18.0433V15.7666Z" fill="white"/>
</mask>
<g mask="url(#mask1_10_16)">
<path d="M68.4159 21.8378C53.6373 12.6091 39.168 22.0427 39.168 22.0427C34.0299 21.2759 30.1456 22.8478 27.3104 26.4424C26.8794 26.9857 26.4773 27.5749 26.1032 28.2116C21.7132 35.5028 20.3938 48.7563 21.0764 66.259C21.7319 83.1436 27.1795 91.2305 31.6248 95.041C27.0953 92.4939 19.0276 85.0446 18.2132 64.2372C17.5297 46.7346 18.8491 33.4811 23.2392 26.1899C23.6132 25.5531 24.0153 24.964 24.4463 24.4207C27.2824 20.827 31.1666 19.2541 36.3048 20.0218C36.3048 20.0218 52.7021 9.33251 68.4159 21.8378Z" fill="black"/>
</g>
</g>
<path d="M54.0881 89.2818H45.8894V80.0437H54.0881V89.2818Z" fill="#FECAB9"/>
<g opacity="0.300003">
<mask id="mask2_10_16" style="mask-type:luminance" maskUnits="userSpaceOnUse" x="45" y="80" width="10" height="6">
<path d="M45.8893 80.0438H54.0879V85.587H45.8893V80.0438Z" fill="white"/>
</mask>
<g mask="url(#mask2_10_16)">
<path d="M54.0884 80.0436V83.8898C52.6849 84.6864 50.812 85.6412 49.9891 85.5851C49.2308 85.5375 47.4056 84.7417 45.8898 84.0309V80.0436H54.0884Z" fill="black"/>
</g>
</g>
<path d="M27.6454 64.6183C27.608 64.6557 27.5612 64.6837 27.5238 64.7118C21.9265 68.1006 16.6107 55.5962 19.8395 52.9283C20.364 52.4972 20.9064 52.2073 21.4496 52.0203C23.115 51.4583 24.8093 51.8511 25.9417 52.2915C26.7561 52.6001 27.2807 52.9283 27.2807 52.9283C27.2807 52.9283 27.3929 53.265 27.5706 53.8269C28.3008 56.2601 30.041 62.9341 27.6454 64.6183Z" fill="#FECAB9"/>
<g opacity="0.300003">
<mask id="mask3_10_16" style="mask-type:luminance" maskUnits="userSpaceOnUse" x="21" y="53" width="5" height="10">
<path d="M21.1412 53.7519H25.6231V62.3566H21.1412V53.7519Z" fill="white"/>
</mask>
<g mask="url(#mask3_10_16)">
<path d="M25.1198 62.3567C25.1342 62.3567 25.1487 62.3559 25.164 62.3559C25.4224 62.3508 25.6282 62.1374 25.6231 61.8789C25.618 61.6213 25.4377 61.4139 25.1461 61.4198C24.7287 61.4411 24.3241 61.2387 23.9279 60.8553C22.9035 59.8657 22.1078 57.6875 22.078 55.7874C22.0678 55.1234 22.3339 54.9389 22.4206 54.8785C23.02 54.4636 24.3326 54.8326 24.7449 54.9958C24.9846 55.0885 25.2575 54.9712 25.351 54.7306C25.4462 54.49 25.3281 54.2188 25.0866 54.1244C24.8766 54.0419 23.0004 53.3388 21.8876 54.1091C21.539 54.3514 21.1267 54.8403 21.142 55.8018C21.1709 57.651 21.9139 60.2126 23.2775 61.5286C23.8463 62.0778 24.466 62.3567 25.1198 62.3567Z" fill="black"/>
</g>
</g>
<path d="M69.2811 52.9266C69.2811 52.9266 73.5028 50.2579 76.7291 52.9266C79.9553 55.5953 74.6369 68.1023 69.0422 64.716C65.8839 62.8048 69.2811 52.9266 69.2811 52.9266Z" fill="#FECAB9"/>
<g opacity="0.300003">
<mask id="mask4_10_16" style="mask-type:luminance" maskUnits="userSpaceOnUse" x="70" y="53" width="6" height="10">
<path d="M70.9427 53.7519H75.4238V62.3566H70.9427V53.7519Z" fill="white"/>
</mask>
<g mask="url(#mask4_10_16)">
<path d="M71.4465 62.3567C71.4312 62.3567 71.4167 62.3559 71.4014 62.3559C71.1438 62.3508 70.9381 62.1374 70.9432 61.8789C70.9483 61.6213 71.1277 61.4139 71.4201 61.4198C71.8375 61.4411 72.2422 61.2387 72.6375 60.8553C73.6619 59.8657 74.4585 57.6875 74.4874 55.7874C74.4985 55.1234 74.2324 54.9389 74.1456 54.8785C73.5455 54.4636 72.2337 54.8326 71.8205 54.9958C71.5817 55.0885 71.3088 54.9712 71.2152 54.7306C71.12 54.49 71.2382 54.2188 71.4788 54.1244C71.6888 54.0419 73.565 53.3388 74.6787 54.1091C75.0264 54.3514 75.4387 54.8403 75.4242 55.8018C75.3953 57.651 74.6523 60.2126 73.2879 61.5286C72.7191 62.0778 72.1002 62.3567 71.4465 62.3567Z" fill="black"/>
</g>
</g>
<path d="M73.1888 47.2302C73.1888 47.2302 73.0766 48.7283 72.8615 50.9464C72.8615 50.9931 72.8521 51.0305 72.8521 51.0773C72.8054 51.5823 72.7399 52.1256 72.6838 52.6969C72.6558 53.0055 72.6184 53.3235 72.5903 53.6415C72.2154 56.9368 71.7011 60.9335 71.0456 64.097C70.5781 66.3432 70.0348 68.1685 69.4363 69.0297C67.0585 72.4458 55.3038 82.1795 49.4447 83.3409C43.5669 82.1795 31.8308 72.4458 29.4436 69.0297C28.8451 68.1592 28.3028 66.2964 27.825 64.0035C27.3566 61.7199 26.9545 59.0052 26.6365 56.4309C26.384 54.5035 26.197 52.6595 26.0465 51.1334C26.0372 51.0586 26.0278 50.9838 26.0278 50.909C26.0185 50.8529 26.0091 50.8061 26.0091 50.75C25.8221 48.8311 25.7099 47.4929 25.6912 47.2676V47.2302C25.8782 40.2103 27.3294 35.1747 29.4164 31.5903C29.7437 31.0377 30.071 30.5233 30.4272 30.0455C33.3466 25.9842 37.1934 24.1776 40.656 23.4379H40.6662C42.2475 23.1106 43.7454 22.9975 45.0367 22.9975C45.5052 22.9975 45.9353 23.0171 46.3468 23.0349C48.2281 23.148 49.4447 23.4473 49.4447 23.4473C49.4447 23.4473 49.5008 23.4379 49.6036 23.409C49.6691 23.3911 49.7626 23.3724 49.8655 23.3537C50.5396 23.2228 51.9908 22.9975 53.8534 22.9975C54.4706 22.9975 55.1354 23.0256 55.8274 23.0825C58.1772 23.2883 60.901 23.9242 63.4837 25.4596C64.6067 26.1143 65.7017 26.9483 66.7227 27.977C69.3241 30.5981 71.486 34.5387 72.5155 40.3982C72.6558 41.1276 72.768 41.8766 72.8615 42.6631C73.0392 44.0761 73.142 45.6021 73.1888 47.2302Z" fill="#FED6C9"/>
<path d="M40.8221 55.3468C40.8221 56.3466 40.012 57.156 39.0131 57.156C38.0142 57.156 37.204 56.3466 37.204 55.3468C37.204 54.3478 38.0142 53.5376 39.0131 53.5376C40.012 53.5376 40.8221 54.3478 40.8221 55.3468Z" fill="#57434C"/>
<path d="M61.0994 55.3468C61.0994 56.3466 60.2892 57.156 59.2894 57.156C58.2905 57.156 57.4803 56.3466 57.4803 55.3468C57.4803 54.3478 58.2905 53.5376 59.2894 53.5376C60.2892 53.5376 61.0994 54.3478 61.0994 55.3468Z" fill="#57434C"/>
<path d="M61.0986 48.4939C60.9957 48.4939 60.892 48.4709 60.7934 48.4216C59.3082 47.6777 57.8027 48.4148 57.7865 48.4216C57.4481 48.5882 57.0384 48.4539 56.8684 48.1155C56.7 47.7772 56.8369 47.3665 57.1753 47.1982C57.262 47.154 59.315 46.1525 61.4047 47.1982C61.743 47.3665 61.8799 47.7772 61.7116 48.1155C61.5908 48.3553 61.3494 48.4939 61.0986 48.4939Z" fill="#57434C"/>
<g opacity="0.699997">
<mask id="mask5_10_16" style="mask-type:luminance" maskUnits="userSpaceOnUse" x="47" y="59" width="6" height="5">
<path d="M47.7391 59.0366H52.238V63.0775H47.7391V59.0366Z" fill="white"/>
</mask>
<g mask="url(#mask5_10_16)">
<path d="M51.6736 63.0773H48.3105C47.8651 63.0773 47.5998 62.6072 47.8166 62.2339L49.4922 59.3161C49.709 58.9429 50.2633 58.9429 50.4801 59.3161L52.1557 62.2339C52.3844 62.6072 52.1072 63.0773 51.6736 63.0773Z" fill="black"/>
</g>
</g>
<g opacity="0.399994">
<mask id="mask6_10_16" style="mask-type:luminance" maskUnits="userSpaceOnUse" x="30" y="59" width="8" height="7">
<path d="M30.8402 59.392H37.2034V65.7556H30.8402V59.392Z" fill="white"/>
</mask>
<g mask="url(#mask6_10_16)">
<path d="M37.2036 62.5742C37.2036 64.3307 35.7796 65.7556 34.0224 65.7556C32.2652 65.7556 30.8403 64.3307 30.8403 62.5742C30.8403 60.8169 32.2652 59.3928 34.0224 59.3928C35.7796 59.3928 37.2036 60.8169 37.2036 62.5742Z" fill="#9C005C"/>
</g>
</g>
<g opacity="0.399994">
<mask id="mask7_10_16" style="mask-type:luminance" maskUnits="userSpaceOnUse" x="31" y="61" width="6" height="3">
<path d="M31.7559 61.8218H36.2879V63.3266H31.7559V61.8218Z" fill="white"/>
</mask>
<g mask="url(#mask7_10_16)">
<path d="M31.9337 63.3262C31.8946 63.3262 31.8555 63.3135 31.8231 63.2871C31.7466 63.2259 31.7339 63.1145 31.7951 63.038L32.72 61.8877C32.7821 61.8121 32.8935 61.7993 32.9691 61.8605C33.0456 61.9217 33.0575 62.0331 32.9963 62.1096L32.0722 63.2608C32.0365 63.3041 31.9855 63.3262 31.9337 63.3262Z" fill="#9C005C"/>
</g>
<mask id="mask8_10_16" style="mask-type:luminance" maskUnits="userSpaceOnUse" x="31" y="61" width="6" height="3">
<path d="M31.7559 61.8218H36.2879V63.3266H31.7559V61.8218Z" fill="white"/>
</mask>
<g mask="url(#mask8_10_16)">
<path d="M33.5603 63.3263C33.5212 63.3263 33.4821 63.3136 33.4498 63.2872C33.3724 63.226 33.3605 63.1146 33.4217 63.0381L34.3458 61.8878C34.4079 61.8122 34.5192 61.7994 34.5957 61.8606C34.6714 61.9218 34.6833 62.0332 34.6221 62.1097L33.698 63.2609C33.6631 63.3042 33.6121 63.3263 33.5603 63.3263Z" fill="#9C005C"/>
</g>
<mask id="mask9_10_16" style="mask-type:luminance" maskUnits="userSpaceOnUse" x="31" y="61" width="6" height="3">
<path d="M31.7559 61.8218H36.2879V63.3266H31.7559V61.8218Z" fill="white"/>
</mask>
<g mask="url(#mask9_10_16)">
<path d="M35.1866 63.3263C35.1475 63.3263 35.1084 63.3136 35.0761 63.2872C34.9995 63.226 34.9876 63.1146 35.0488 63.0381L35.9729 61.8878C36.035 61.8122 36.1464 61.7994 36.222 61.8606C36.2985 61.9218 36.3104 62.0332 36.2492 62.1097L35.3251 63.2609C35.2894 63.3042 35.2393 63.3263 35.1866 63.3263Z" fill="#9C005C"/>
</g>
</g>
<g opacity="0.399994">
<mask id="mask10_10_16" style="mask-type:luminance" maskUnits="userSpaceOnUse" x="61" y="59" width="7" height="7">
<path d="M61.0988 59.392H67.462V65.7556H61.0988V59.392Z" fill="white"/>
</mask>
<g mask="url(#mask10_10_16)">
<path d="M67.462 62.5742C67.462 64.3307 66.0372 65.7556 64.2808 65.7556C62.5227 65.7556 61.0996 64.3307 61.0996 62.5742C61.0996 60.8169 62.5227 59.3928 64.2808 59.3928C66.0372 59.3928 67.462 60.8169 67.462 62.5742Z" fill="#9C005C"/>
</g>
</g>
<g opacity="0.399994">
<mask id="mask11_10_16" style="mask-type:luminance" maskUnits="userSpaceOnUse" x="62" y="61" width="5" height="3">
<path d="M62.0144 61.8218H66.5465V63.3266H62.0144V61.8218Z" fill="white"/>
</mask>
<g mask="url(#mask11_10_16)">
<path d="M62.1918 63.3264C62.1527 63.3264 62.1136 63.3136 62.0804 63.2873C62.0039 63.2261 61.9929 63.1147 62.0541 63.0382L62.9782 61.8879C63.0394 61.8122 63.1516 61.7995 63.2272 61.8607C63.3038 61.9219 63.3148 62.0333 63.2536 62.1098L62.3295 63.2609C62.2947 63.3043 62.2445 63.3264 62.1918 63.3264Z" fill="#9C005C"/>
</g>
<mask id="mask12_10_16" style="mask-type:luminance" maskUnits="userSpaceOnUse" x="62" y="61" width="5" height="3">
<path d="M62.0144 61.8218H66.5465V63.3266H62.0144V61.8218Z" fill="white"/>
</mask>
<g mask="url(#mask12_10_16)">
<path d="M63.8182 63.3263C63.7791 63.3263 63.7399 63.3136 63.7076 63.2872C63.6311 63.226 63.6192 63.1146 63.6804 63.0381L64.6045 61.8878C64.6666 61.8122 64.778 61.7994 64.8536 61.8606C64.9301 61.9218 64.942 62.0332 64.8808 62.1097L63.9567 63.2609C63.921 63.3042 63.8709 63.3263 63.8182 63.3263Z" fill="#9C005C"/>
</g>
<mask id="mask13_10_16" style="mask-type:luminance" maskUnits="userSpaceOnUse" x="62" y="61" width="5" height="3">
<path d="M62.0144 61.8218H66.5465V63.3266H62.0144V61.8218Z" fill="white"/>
</mask>
<g mask="url(#mask13_10_16)">
<path d="M65.4455 63.3263C65.4064 63.3263 65.3664 63.3136 65.3341 63.2872C65.2576 63.226 65.2457 63.1146 65.3069 63.0381L66.231 61.8878C66.2931 61.8122 66.4044 61.7994 66.4809 61.8606C66.5566 61.9218 66.5685 62.0332 66.5073 62.1097L65.5832 63.2609C65.5483 63.3042 65.4973 63.3263 65.4455 63.3263Z" fill="#9C005C"/>
</g>
</g>
<path d="M54.9284 68.0946C54.647 69.3299 52.5404 70.2897 49.9857 70.2897C47.4413 70.2897 45.3245 69.3299 45.0431 68.0946H54.9284Z" fill="#E58191"/>
<path d="M40.8218 48.4939C40.7181 48.4939 40.6143 48.4709 40.5166 48.4216C39.0314 47.6777 37.5258 48.4148 37.5097 48.4216C37.1713 48.5882 36.7616 48.4539 36.5915 48.1155C36.4232 47.7772 36.5601 47.3665 36.8976 47.1982C36.9851 47.154 39.039 46.1525 41.1278 47.1982C41.4662 47.3665 41.603 47.7772 41.4339 48.1155C41.314 48.3553 41.0726 48.4939 40.8218 48.4939Z" fill="#57434C"/>
<g opacity="0.300003">
<mask id="mask14_10_16" style="mask-type:luminance" maskUnits="userSpaceOnUse" x="25" y="22" width="49" height="29">
<path d="M25.691 22.9983H73.1895V50.9463H25.691V22.9983Z" fill="white"/>
</mask>
<g mask="url(#mask14_10_16)">
<path d="M73.1889 47.2303C73.1889 47.2303 73.0767 48.7283 72.8616 50.9464C69.1185 49.655 65.1025 48.8966 61.1536 48.4851H61.1443C61.0788 48.4758 60.9938 48.4656 60.9283 48.4656H60.9105C60.0213 48.3729 59.1499 48.2972 58.2802 48.2411H58.2708C57.8118 48.2131 57.3535 48.185 56.9047 48.1672C46.6649 47.6707 37.9986 49.1678 37.9986 49.1678C37.9799 48.8499 37.9706 48.5506 37.9519 48.2505C37.9238 47.7642 37.8958 47.3051 37.8584 46.8655C37.2029 37.9922 35.6497 38.3484 35.6497 38.3484C34.7324 42.232 36.2856 49.4679 36.2856 49.4679C32.7108 49.411 27.8158 50.478 26.0279 50.909C26.0186 50.8529 26.0092 50.8061 26.0092 50.75C25.8222 48.8312 25.71 47.493 25.6913 47.2677V47.2303C25.8783 40.2103 27.3295 35.1747 29.4166 31.5903C29.7439 31.0377 30.0712 30.5233 30.4274 30.0455C33.3467 25.9842 37.1935 24.1776 40.6561 23.4379H40.6663L46.3469 23.0349L46.834 22.9975L49.6038 23.409L63.4838 25.4597C64.6069 26.1143 65.7018 26.9483 66.7228 27.977C69.3242 30.5982 71.4861 34.5388 72.5156 40.3982C72.6559 41.1277 72.7681 41.8767 72.8616 42.6631C73.0393 44.0761 73.1422 45.6022 73.1889 47.2303Z" fill="black"/>
</g>
</g>
<path d="M25.6941 29.809C25.6941 29.809 21.3551 44.6174 24.6434 48.49L34.7574 46.8823C34.7574 46.8823 33.5621 37.6689 35.7189 35.2008C35.7189 35.2008 38.9307 35.4287 39.1279 46.0398C39.1279 46.0398 60.2332 43.4688 74.9099 48.4127C74.9099 48.4127 77.5436 37.9104 75.55 31.6173C75.55 31.6173 57.3802 7.73911 25.6941 29.809Z" fill="#814F67"/>
<g opacity="0.300003">
<mask id="mask15_10_16" style="mask-type:luminance" maskUnits="userSpaceOnUse" x="23" y="24" width="52" height="7">
<path d="M23.2391 24.4206H74.0123V30.5266H23.2391V24.4206Z" fill="white"/>
</mask>
<g mask="url(#mask15_10_16)">
<path d="M62.4543 29.8681C60.2448 30.0457 58.037 30.271 55.8276 30.3918L52.4959 30.4861C51.3916 30.5235 50.2779 30.5516 49.1736 30.4946L45.8326 30.402C44.7189 30.3824 43.6137 30.2336 42.5103 30.1588C40.2821 30.0177 38.0828 29.653 35.8648 29.3537C34.4604 29.1097 33.0568 28.8385 31.6532 28.5299C30.2114 28.2119 28.7798 27.8659 27.3567 27.4629C25.9718 27.0795 24.6057 26.6578 23.2395 26.1902C23.6136 25.5534 24.0157 24.9634 24.4467 24.4209C26.1308 25.0951 27.8532 25.6937 29.5849 26.2369C30.7172 26.5829 31.8496 26.9103 32.9913 27.2095C34.0396 27.4807 35.0878 27.7341 36.136 27.9772C38.2885 28.3896 40.441 28.858 42.6216 29.1097C43.7166 29.2415 44.8031 29.4472 45.9074 29.522L49.2016 29.7932C50.2966 29.9148 51.4009 29.9429 52.5052 29.9616L55.8182 30.0457C58.0277 30.0364 60.2363 29.9242 62.4543 29.8681Z" fill="white"/>
</g>
<mask id="mask16_10_16" style="mask-type:luminance" maskUnits="userSpaceOnUse" x="23" y="24" width="52" height="7">
<path d="M23.2391 24.4206H74.0123V30.5266H23.2391V24.4206Z" fill="white"/>
</mask>
<g mask="url(#mask16_10_16)">
<path d="M74.0131 28.1086L72.1879 28.3985C72.0944 28.4079 71.9915 28.4266 71.898 28.4359C70.4562 28.623 69.0152 28.7641 67.5734 28.9044C66.9094 28.9783 66.2446 29.0447 65.5798 29.1186C66.2166 29.0158 66.8627 28.9129 67.4986 28.81C68.8469 28.6043 70.1943 28.3985 71.5324 28.1554C71.7288 28.1265 71.9354 28.0899 72.1318 28.0525L73.7504 27.7056C73.8346 27.8374 73.9196 27.9777 74.0131 28.1086Z" fill="white"/>
</g>
</g>
<path d="M70.3721 117.56V117.822H70.3542C70.3721 117.738 70.3721 117.653 70.3721 117.56Z" fill="#7D5393"/>
<path d="M89.5215 124.87H10.4542C10.4542 124.87 14.3198 104.325 16.332 100.9C18.3536 97.4737 37.7647 83.4627 37.7647 83.4627C37.7647 83.4627 41.3488 87.1125 47.2827 88.2824C48.1346 88.4414 49.0425 88.5536 49.9878 88.6012C50.6059 88.5731 51.2044 88.5162 51.7757 88.4329C58.2613 87.496 62.211 83.4627 62.211 83.4627C62.211 83.4627 66.5254 86.5795 71.3083 90.2387C76.6522 94.3289 82.5768 99.0933 83.6437 100.9C85.6559 104.325 89.5215 124.87 89.5215 124.87Z" fill="#9262AD"/>
<g opacity="0.600006">
<mask id="mask17_10_16" style="mask-type:luminance" maskUnits="userSpaceOnUse" x="47" y="88" width="5" height="37">
<path d="M47.2827 88.2829H51.7756V124.87H47.2827V88.2829Z" fill="white"/>
</mask>
<g mask="url(#mask17_10_16)">
<path d="M51.7754 88.4325V124.87H47.2825V88.282C48.1343 88.4419 49.0422 88.5541 49.9876 88.6008C50.6056 88.5728 51.205 88.5167 51.7754 88.4325Z" fill="white"/>
</g>
</g>
<path d="M50.7838 94.481C50.7838 95.1739 50.2218 95.7358 49.529 95.7358C48.8361 95.7358 48.275 95.1739 48.275 94.481C48.275 93.7881 48.8361 93.2261 49.529 93.2261C50.2218 93.2261 50.7838 93.7881 50.7838 94.481Z" fill="#7D5393"/>
<path d="M50.7838 106.151C50.7838 106.843 50.2218 107.406 49.529 107.406C48.8361 107.406 48.275 106.843 48.275 106.151C48.275 105.458 48.8361 104.896 49.529 104.896C50.2218 104.896 50.7838 105.458 50.7838 106.151Z" fill="#7D5393"/>
<path d="M50.7838 117.821C50.7838 118.513 50.2218 119.076 49.529 119.076C48.8361 119.076 48.275 118.513 48.275 117.821C48.275 117.128 48.8361 116.565 49.529 116.565C50.2218 116.565 50.7838 117.128 50.7838 117.821Z" fill="#7D5393"/>
<path d="M70.372 108.929V118.042C70.372 118.126 70.372 118.202 70.3541 118.278C70.1943 120.495 67.6668 122.259 64.5792 122.259C61.4906 122.259 58.9632 120.495 58.8042 118.278C58.7855 118.202 58.7855 118.126 58.7855 118.042V108.929H70.372Z" fill="#7D5393"/>
<path d="M58.7858 117.56C58.7858 117.653 58.7858 117.738 58.8036 117.822H58.7858V117.56Z" fill="#7D5393"/>
<g opacity="0.100006">
<mask id="mask18_10_16" style="mask-type:luminance" maskUnits="userSpaceOnUse" x="10" y="83" width="62" height="42">
<path d="M10.454 83.4623H71.308V124.87H10.454V83.4623Z" fill="white"/>
</mask>
<g mask="url(#mask18_10_16)">
<path d="M71.3084 90.2391C64.4385 100.076 35.5842 98.6814 32.1675 107.04C30.0431 112.254 24.4747 119.497 19.9724 124.87H10.4543C10.4543 124.87 10.7162 123.485 11.1379 121.369C12.3357 115.351 14.8436 103.436 16.3321 100.9C18.3529 97.4742 37.7648 83.4623 37.7648 83.4623C37.7648 83.4623 42.4533 88.2446 49.988 88.6008C57.5218 88.2446 62.2111 83.4623 62.2111 83.4623C62.2111 83.4623 64.0925 84.8192 66.7406 86.7942C68.1068 87.8144 69.6795 88.9936 71.3084 90.2391Z" fill="black"/>
</g>
</g>
</svg>
