<svg width="100" height="125" viewBox="0 0 100 125" fill="none" xmlns="http://www.w3.org/2000/svg">
<g opacity="0.5">
<mask id="mask0_10_19" style="mask-type:luminance" maskUnits="userSpaceOnUse" x="0" y="0" width="100" height="117">
<path d="M0 -2.28882e-05H100V116.101H0V-2.28882e-05Z" fill="white"/>
</mask>
<g mask="url(#mask0_10_19)">
<path d="M99.9999 58.051C99.9999 90.1112 77.6143 116.101 50.0003 116.101C22.3854 116.101 -0.000244141 90.1112 -0.000244141 58.051C-0.000244141 25.99 22.3854 0.000602722 50.0003 0.000602722C77.6143 0.000602722 99.9999 25.99 99.9999 58.051Z" fill="#D87579"/>
</g>
</g>
<path d="M53.5716 89.2766H45.3729V80.0391H53.5716V89.2766Z" fill="#FECAB9"/>
<g opacity="0.300003">
<mask id="mask1_10_19" style="mask-type:luminance" maskUnits="userSpaceOnUse" x="45" y="80" width="9" height="6">
<path d="M45.3734 80.0391H53.5718V85.5819H45.3734V80.0391Z" fill="white"/>
</mask>
<g mask="url(#mask1_10_19)">
<path d="M53.572 80.0389V83.8849C52.1684 84.6815 50.2964 85.6362 49.4726 85.5801C48.7152 85.5325 46.8899 84.7367 45.3733 84.026V80.0389H53.572Z" fill="black"/>
</g>
</g>
<path d="M81.4123 51.9224L80.4644 63.2989C80.2102 66.3194 77.5519 68.5671 74.5322 68.3129C71.6588 68.0681 69.4892 65.6537 69.4986 62.8194C69.4986 62.6834 69.5088 62.5269 69.5181 62.3901L70.4762 51.0042C70.7109 48.141 73.115 45.9706 75.9298 45.9706C76.0854 45.9706 76.2418 45.9808 76.3991 45.9902C78.158 46.1364 79.6534 47.1047 80.5426 48.4828C81.1879 49.4604 81.5194 50.6625 81.4123 51.9224Z" fill="#30335D"/>
<path d="M81.4223 51.7954C81.4223 51.8345 81.4121 51.8838 81.4121 51.9221L80.4642 63.2985C80.4548 63.4558 80.4353 63.602 80.4055 63.7491C79.9362 66.5443 77.3952 68.5574 74.532 68.3135C71.6585 68.0686 69.489 65.6542 69.4983 62.8199C77.073 61.8814 79.7509 52.4602 80.5424 48.4833C81.1681 49.4303 81.5005 50.5839 81.4223 51.7954Z" fill="#292C47"/>
<g opacity="0.600006">
<mask id="mask2_10_19" style="mask-type:luminance" maskUnits="userSpaceOnUse" x="79" y="51" width="3" height="13">
<path d="M79.5424 51.7959H81.422V63.7488H79.5424V51.7959Z" fill="white"/>
</mask>
<g mask="url(#mask2_10_19)">
<path d="M81.4219 51.7953C81.4219 51.8344 81.4117 51.8837 81.4117 51.922L80.4638 63.2985C80.4544 63.4557 80.4349 63.602 80.4051 63.749C79.8678 63.5824 79.5065 63.0647 79.5448 62.4874L80.3073 52.9099C80.3566 52.3131 80.8353 51.8344 81.4219 51.7953Z" fill="#E5E5E5"/>
</g>
</g>
<path d="M16.7426 51.9224L17.6905 63.2989C17.9447 66.3194 20.6039 68.5671 23.6236 68.3129C26.497 68.0681 28.6665 65.6537 28.6563 62.8194C28.6563 62.6834 28.647 62.5269 28.6368 62.3901L27.6795 51.0042C27.4449 48.141 25.0407 45.9706 22.2259 45.9706C22.0695 45.9706 21.9131 45.9808 21.7567 45.9902C19.9977 46.1364 18.5015 47.1047 17.6123 48.4828C16.9679 49.4604 16.6355 50.6625 16.7426 51.9224Z" fill="#30335D"/>
<path d="M16.7331 51.7954C16.7331 51.8345 16.7424 51.8838 16.7424 51.9221L17.6903 63.2985C17.7005 63.4558 17.7201 63.602 17.749 63.7491C18.2191 66.5443 20.7593 68.5574 23.6234 68.3135C26.4968 68.0686 28.6664 65.6542 28.6562 62.8199C21.0824 61.8814 18.4044 52.4602 17.613 48.4833C16.9873 49.4303 16.6549 50.5839 16.7331 51.7954Z" fill="#292C47"/>
<g opacity="0.600006">
<mask id="mask3_10_19" style="mask-type:luminance" maskUnits="userSpaceOnUse" x="16" y="52" width="3" height="13">
<path d="M16.7329 52.7247H18.6123V64.6775H16.7329V52.7247Z" fill="white"/>
</mask>
<g mask="url(#mask3_10_19)">
<path d="M16.733 52.7241C16.733 52.7632 16.7424 52.8125 16.7424 52.8508L17.6903 64.2272C17.7005 64.3845 17.72 64.5307 17.7489 64.6778C18.2871 64.5112 18.6484 63.9934 18.6093 63.4162L17.8476 53.8386C17.7982 53.2418 17.3188 52.7632 16.733 52.7241Z" fill="#E5E5E5"/>
</g>
</g>
<path d="M72.6941 47.2317C72.6941 47.2317 72.5768 48.7857 72.3524 51.0726C72.3039 51.5801 72.2444 52.1183 72.1857 52.6947C72.1568 52.9973 72.1177 53.3204 72.0888 53.6426C71.7173 56.9368 71.1987 60.9333 70.5441 64.0907C70.0749 66.3393 69.5376 68.1662 68.9408 69.0265C66.5562 72.4364 54.8091 82.1721 48.9448 83.3351C43.0713 82.1721 31.3335 72.4364 28.948 69.0265C28.3427 68.156 27.8046 66.29 27.326 64.0031C26.8567 61.7154 26.4563 58.9984 26.1333 56.4276C25.8893 54.5029 25.6937 52.6556 25.5475 51.1313C25.5373 51.0037 25.5178 50.8771 25.5084 50.7504C25.3222 48.8249 25.2151 47.4859 25.1956 47.2606V47.2317C25.3809 40.2037 26.8278 35.1709 28.9191 31.5842C29.2413 31.0367 29.5737 30.519 29.9257 30.0395C34.1772 24.137 40.3832 22.9936 44.5369 22.9936C47.1468 22.9936 48.9448 23.4433 48.9448 23.4433C48.9448 23.4433 49.0911 23.4042 49.3648 23.3549C50.0398 23.218 51.4952 22.9936 53.3528 22.9936C53.9683 22.9936 54.6331 23.0225 55.3268 23.0812C58.6993 23.3838 62.8326 24.557 66.2246 27.9779C68.8243 30.5972 70.9837 34.5358 72.02 40.4C72.1568 41.1227 72.2742 41.8759 72.3617 42.6571C72.5377 44.0743 72.6457 45.5995 72.6941 47.2317Z" fill="#FED6C9"/>
<g opacity="0.300003">
<mask id="mask4_10_19" style="mask-type:luminance" maskUnits="userSpaceOnUse" x="25" y="21" width="48" height="33">
<path d="M25.1954 21.6052H72.6946V53.764H25.1954V21.6052Z" fill="white"/>
</mask>
<g mask="url(#mask4_10_19)">
<path d="M72.6941 47.2313C72.6941 47.2313 72.5768 48.7854 72.3524 51.0722C72.3039 51.5798 72.2444 52.1179 72.1857 52.6943C72.1568 52.9969 72.1177 53.32 72.0888 53.6422C67.8662 54.942 64.7684 45.3542 64.7684 45.3542C55.4832 53.5062 55.6787 38.6595 55.6787 38.6595C46.9419 45.56 46.5313 41.4844 46.5313 41.4844C37.9594 48.9707 37.0022 45.7649 37.0022 45.7649C29.4369 53.8768 25.987 50.5052 25.987 50.5052C25.8502 50.6319 25.6844 50.7203 25.5084 50.75C25.3222 48.8245 25.2151 47.4855 25.1956 47.2602V47.2313C25.3809 40.2033 26.8278 35.1705 28.9191 31.5838L29.5151 31.2514L49.3648 23.3545L53.7727 21.605L55.3268 23.0808L69.4985 36.5783C69.4985 36.5783 70.7295 38.1715 72.02 40.3997C72.1568 41.1223 72.2742 41.8755 72.3617 42.6568C72.5377 44.0739 72.6457 45.5991 72.6941 47.2313Z" fill="black"/>
</g>
</g>
<path d="M74.7565 47.6028C74.7471 47.6419 74.7369 47.6912 74.7174 47.7295V47.7397C74.1801 49.587 73.3691 50.9549 72.3132 51.4921C72.2545 51.5321 72.1865 51.561 72.1177 51.5899C67.6315 53.4185 65.2078 41.3866 65.2078 41.3866C65.2078 41.3866 63.5364 44.6222 60.7812 45.8141C58.0242 46.9966 56.891 34.8483 56.891 34.8483C56.891 34.8483 51.8182 39.813 49.0136 40.7907C46.1989 41.7581 49.0136 36.0895 49.0136 36.0895C38.4286 48.776 37.3532 43.058 37.3532 43.058C28.8213 53.3106 26.3389 48.5609 26.3389 48.5609C25.987 48.7862 25.6554 48.9519 25.3613 49.0786C24.3547 49.5088 23.6712 49.4297 23.2019 49.1373C23.2019 49.1373 23.0353 49.0786 22.8211 48.8049C22.4496 48.3849 22.2931 47.8468 22.2438 47.6028C22.2345 47.5144 22.2243 47.4659 22.2243 47.4659C22.2243 47.4464 22.2149 47.4268 22.2149 47.4081C22.2047 47.3979 22.2047 47.3877 22.2047 47.369C22.0585 46.4594 21.9412 45.5999 21.8536 44.7582C21.8536 44.7497 21.8434 44.7395 21.8434 44.7191C21.6581 43.058 21.5595 41.5141 21.5399 40.0681C21.4915 34.4478 22.6451 30.3239 24.3258 27.4011C24.6489 26.8341 24.9898 26.3061 25.3426 25.8182C30.19 19.1327 37.9891 19.0843 38.2136 19.0843C50.4699 10.9324 64.2888 19.5144 70.6614 26.5416C70.7694 26.6581 70.8765 26.7754 70.9649 26.9021C71.1018 27.0492 71.2182 27.1962 71.3262 27.3424C73.0758 29.6199 74.2388 32.6396 74.8636 35.7673C75.7341 40.0188 75.6364 44.4752 74.7565 47.6028Z" fill="#814F67"/>
<path d="M74.8639 35.7673C73.5641 32.7468 71.795 29.9907 69.645 27.6061C69.5472 27.4896 69.4299 27.3714 69.3228 27.2541C64.1625 21.6841 56.9295 18.224 48.9451 18.224C41.1749 18.224 34.1188 21.5081 28.9874 26.8146C28.5572 27.2541 28.1466 27.7047 27.7658 28.1731C24.8728 31.5447 22.7228 35.5914 21.5402 40.0682C20.9154 42.4723 20.5626 44.9938 20.5337 47.6029H24.355C24.4043 43.8691 25.2052 40.3215 26.6028 37.1352C26.6028 37.1258 26.613 37.1258 26.613 37.1156C27.9613 34.0084 29.8868 31.2421 32.2417 28.9459C32.6523 28.5446 33.0731 28.1638 33.5033 27.7923C35.9075 25.7494 38.673 24.1664 41.6926 23.1888C41.7028 23.1786 41.7122 23.1786 41.7224 23.1786C44.0092 22.4364 46.433 22.036 48.9451 22.036C51.447 22.036 53.8606 22.4271 56.1381 23.1692C59.3048 24.186 62.2072 25.8667 64.6997 28.0566C64.7491 28.0957 64.7975 28.1434 64.846 28.1927C67.5341 30.5875 69.7325 33.5884 71.2381 36.9983C72.6748 40.2237 73.4961 43.8206 73.5445 47.6029H77.3659C77.3174 43.3905 76.4375 39.3838 74.8639 35.7673Z" fill="#30335D"/>
<path d="M38.5139 22.9979C38.5139 22.9979 42.2443 19.775 49.8963 20.4407C57.5492 21.1055 75.4666 24.2254 74.7176 47.7384L69.6508 48.3462L63.7815 33.2003L42.1346 33.4162L29.4345 42.9819L23.1979 49.1326C23.1979 49.1326 21.751 48.6378 21.8241 43.2828C21.8964 37.9576 30.4325 21.6053 38.5139 22.9979Z" fill="#814F67"/>
<g opacity="0.100006">
<mask id="mask5_10_19" style="mask-type:luminance" maskUnits="userSpaceOnUse" x="21" y="15" width="42" height="35">
<path d="M21.5388 15.7683H62.8333V49.3765H21.5388V15.7683Z" fill="white"/>
</mask>
<g mask="url(#mask5_10_19)">
<path d="M62.8332 20.0907C56.0891 16.4555 47.6651 14.8717 39.8754 20.0516C39.6501 20.0516 31.8518 20.1009 27.0035 26.7855C26.6516 27.2743 26.3098 27.8014 25.9876 28.3684C24.3061 31.2912 23.1533 35.4152 23.2017 41.0354C23.2213 42.4815 23.3191 44.0253 23.5052 45.6873C23.5052 45.7069 23.5146 45.7171 23.5146 45.7264C23.603 46.5672 23.7203 47.4267 23.8665 48.3363C23.8665 48.3559 23.8665 48.3652 23.8759 48.3754C23.8759 48.395 23.8861 48.4137 23.8861 48.4341C23.8861 48.4341 23.8954 48.4825 23.9056 48.571C23.9354 48.7367 24.023 49.0589 24.1989 49.3718C23.7883 49.4015 23.4661 49.3029 23.2017 49.1371C23.2017 49.1371 23.036 49.0793 22.8209 48.8047C22.4494 48.3848 22.293 47.8466 22.2436 47.6027C22.2343 47.5151 22.2241 47.4658 22.2241 47.4658C22.2241 47.4471 22.2147 47.4267 22.2147 47.408C22.2045 47.3978 22.2045 47.3876 22.2045 47.3689C22.0583 46.4601 21.941 45.5997 21.8534 44.759C21.8534 44.7496 21.8432 44.7394 21.8432 44.7199C21.6579 43.0587 21.5601 41.514 21.5406 40.0679C21.4913 34.4486 22.6449 30.3237 24.3265 27.4018C24.6487 26.8348 24.9904 26.3069 25.3424 25.818C30.1898 19.1326 37.9889 19.0841 38.2142 19.0841C46.6586 13.4648 55.8451 15.8001 62.8332 20.0907Z" fill="black"/>
</g>
</g>
<g opacity="0.300003">
<mask id="mask6_10_19" style="mask-type:luminance" maskUnits="userSpaceOnUse" x="24" y="25" width="48" height="5">
<path d="M24.3254 25.8177H71.3258V29.9757H24.3254V25.8177Z" fill="white"/>
</mask>
<g mask="url(#mask6_10_19)">
<path d="M58.5813 29.2876C56.2749 29.4729 53.9684 29.7075 51.662 29.8444L48.1918 29.9328C47.0288 29.9719 45.8658 30.0008 44.7131 29.943L41.2335 29.8444C40.0705 29.8249 38.9169 29.6684 37.7539 29.5902C35.9074 29.4729 34.0796 29.2094 32.2416 28.9458C31.8123 28.8863 31.3719 28.8276 30.9418 28.7698C30.9027 28.7596 30.8636 28.7596 30.8245 28.7494C30.1605 28.6321 29.5051 28.5156 28.8411 28.3881C28.4789 28.3193 28.127 28.2513 27.7657 28.173C26.6129 27.9384 25.4686 27.6842 24.326 27.4011C24.6482 26.8341 24.99 26.3062 25.342 25.8182C26.544 26.1701 27.7657 26.5025 28.9873 26.8145C29.3291 26.8936 29.6717 26.9812 30.0134 27.0594C30.3747 27.1469 30.7369 27.2353 31.0982 27.3136C31.4502 27.3816 31.7928 27.4504 32.1439 27.5184C32.5936 27.606 33.0535 27.6944 33.5024 27.7922C34.9493 28.0659 36.4056 28.3295 37.8814 28.4952C39.0146 28.6321 40.1487 28.8472 41.3015 28.9356L44.742 29.2094C45.8854 29.3369 47.039 29.3658 48.1918 29.3845L51.6518 29.4729C53.9582 29.4635 56.2647 29.3454 58.5813 29.2876Z" fill="white"/>
</g>
<mask id="mask7_10_19" style="mask-type:luminance" maskUnits="userSpaceOnUse" x="24" y="25" width="48" height="5">
<path d="M24.3254 25.8177H71.3258V29.9757H24.3254V25.8177Z" fill="white"/>
</mask>
<g mask="url(#mask7_10_19)">
<path d="M71.3259 27.3424L69.6452 27.6068L68.7457 27.753C68.5502 27.7827 68.3649 27.8014 68.1694 27.821C67.5437 27.9094 66.918 27.9774 66.2829 28.0361C65.8034 28.0956 65.3248 28.1432 64.8462 28.1925C63.8498 28.3005 62.8424 28.3982 61.8461 28.5053C62.794 28.3498 63.7512 28.2027 64.7 28.0565C65.159 27.9876 65.6181 27.9094 66.078 27.8405C66.674 27.7436 67.2801 27.645 67.8761 27.5379C68.1498 27.4894 68.4133 27.4401 68.6871 27.3917L69.323 27.2539L70.9646 26.902C71.1015 27.0491 71.2188 27.1961 71.3259 27.3424Z" fill="white"/>
</g>
</g>
<path d="M40.3235 55.3436C40.3235 56.3433 39.5133 57.1526 38.5144 57.1526C37.5146 57.1526 36.7053 56.3433 36.7053 55.3436C36.7053 54.3447 37.5146 53.5345 38.5144 53.5345C39.5133 53.5345 40.3235 54.3447 40.3235 55.3436Z" fill="#57434C"/>
<path d="M40.3229 48.4911C40.2192 48.4911 40.1154 48.4681 40.0177 48.4188C38.5325 47.6749 37.0269 48.412 37.0108 48.4188C36.6724 48.5854 36.2618 48.4511 36.0926 48.1128C35.9243 47.7744 36.0612 47.3638 36.3987 47.1955C36.4862 47.1513 38.5393 46.1498 40.6289 47.1955C40.9673 47.3638 41.1033 47.7744 40.935 48.1128C40.8151 48.3525 40.5737 48.4911 40.3229 48.4911Z" fill="#57434C"/>
<path d="M60.6005 55.3436C60.6005 56.3433 59.7903 57.1526 58.7914 57.1526C57.7925 57.1526 56.9823 56.3433 56.9823 55.3436C56.9823 54.3447 57.7925 53.5345 58.7914 53.5345C59.7903 53.5345 60.6005 54.3447 60.6005 55.3436Z" fill="#57434C"/>
<path d="M60.6002 48.4911C60.4973 48.4911 60.3927 48.4681 60.295 48.4188C58.8098 47.6749 57.3042 48.412 57.288 48.4188C56.9497 48.5854 56.5399 48.4511 56.3708 48.1128C56.2016 47.7744 56.3385 47.3638 56.676 47.1955C56.7635 47.1513 58.8174 46.1498 60.9062 47.1955C61.2446 47.3638 61.3814 47.7744 61.2123 48.1128C61.0924 48.3525 60.851 48.4911 60.6002 48.4911Z" fill="#57434C"/>
<g opacity="0.699997">
<mask id="mask8_10_19" style="mask-type:luminance" maskUnits="userSpaceOnUse" x="47" y="59" width="5" height="5">
<path d="M47.241 59.0332H51.7395V63.0738H47.241V59.0332Z" fill="white"/>
</mask>
<g mask="url(#mask8_10_19)">
<path d="M51.1754 63.0736H47.8122C47.3668 63.0736 47.1015 62.6034 47.3183 62.2302L48.9939 59.3126C49.2107 58.9394 49.765 58.9394 49.9818 59.3126L51.6574 62.2302C51.8861 62.6034 51.6089 63.0736 51.1754 63.0736Z" fill="black"/>
</g>
</g>
<g opacity="0.399994">
<mask id="mask9_10_19" style="mask-type:luminance" maskUnits="userSpaceOnUse" x="30" y="59" width="7" height="7">
<path d="M30.3416 59.3885H36.7047V65.7517H30.3416V59.3885Z" fill="white"/>
</mask>
<g mask="url(#mask9_10_19)">
<path d="M36.7047 62.5705C36.7047 64.3269 35.2807 65.7517 33.5235 65.7517C31.7663 65.7517 30.3414 64.3269 30.3414 62.5705C30.3414 60.8133 31.7663 59.3893 33.5235 59.3893C35.2807 59.3893 36.7047 60.8133 36.7047 62.5705Z" fill="#9C005C"/>
</g>
</g>
<g opacity="0.399994">
<mask id="mask10_10_19" style="mask-type:luminance" maskUnits="userSpaceOnUse" x="31" y="61" width="5" height="3">
<path d="M31.2576 61.8182H35.7894V63.3229H31.2576V61.8182Z" fill="white"/>
</mask>
<g mask="url(#mask10_10_19)">
<path d="M31.4349 63.3226C31.3958 63.3226 31.3567 63.3099 31.3244 63.2835C31.247 63.2223 31.2351 63.111 31.2963 63.0344L32.2204 61.8842C32.2825 61.8086 32.3939 61.7958 32.4704 61.857C32.546 61.9182 32.5588 62.0296 32.4967 62.1061L31.5735 63.2572C31.5378 63.3005 31.4868 63.3226 31.4349 63.3226Z" fill="#9C005C"/>
</g>
<mask id="mask11_10_19" style="mask-type:luminance" maskUnits="userSpaceOnUse" x="31" y="61" width="5" height="3">
<path d="M31.2576 61.8182H35.7894V63.3229H31.2576V61.8182Z" fill="white"/>
</mask>
<g mask="url(#mask11_10_19)">
<path d="M33.0618 63.3227C33.0227 63.3227 32.9836 63.3099 32.9504 63.2835C32.8739 63.2223 32.862 63.111 32.9232 63.0345L33.8473 61.8842C33.9094 61.8086 34.0208 61.7958 34.0973 61.857C34.1729 61.9182 34.1848 62.0296 34.1236 62.1061L33.1995 63.2572C33.1647 63.3006 33.1137 63.3227 33.0618 63.3227Z" fill="#9C005C"/>
</g>
<mask id="mask12_10_19" style="mask-type:luminance" maskUnits="userSpaceOnUse" x="31" y="61" width="5" height="3">
<path d="M31.2576 61.8182H35.7894V63.3229H31.2576V61.8182Z" fill="white"/>
</mask>
<g mask="url(#mask12_10_19)">
<path d="M34.6883 63.3227C34.6492 63.3227 34.6101 63.3099 34.5778 63.2835C34.5012 63.2223 34.4893 63.111 34.5506 63.0345L35.4746 61.8842C35.5367 61.8086 35.6481 61.7958 35.7237 61.857C35.8003 61.9182 35.8122 62.0296 35.7509 62.1061L34.8268 63.2572C34.7911 63.3006 34.7401 63.3227 34.6883 63.3227Z" fill="#9C005C"/>
</g>
</g>
<g opacity="0.399994">
<mask id="mask13_10_19" style="mask-type:luminance" maskUnits="userSpaceOnUse" x="60" y="59" width="7" height="7">
<path d="M60.6008 59.3885H66.9641V65.7517H60.6008V59.3885Z" fill="white"/>
</mask>
<g mask="url(#mask13_10_19)">
<path d="M66.9636 62.5705C66.9636 64.3269 65.5388 65.7517 63.7815 65.7517C62.0243 65.7517 60.6003 64.3269 60.6003 62.5705C60.6003 60.8133 62.0243 59.3893 63.7815 59.3893C65.5388 59.3893 66.9636 60.8133 66.9636 62.5705Z" fill="#9C005C"/>
</g>
</g>
<g opacity="0.399994">
<mask id="mask14_10_19" style="mask-type:luminance" maskUnits="userSpaceOnUse" x="61" y="61" width="6" height="3">
<path d="M61.5164 61.8182H66.0484V63.3229H61.5164V61.8182Z" fill="white"/>
</mask>
<g mask="url(#mask14_10_19)">
<path d="M61.6933 63.3225C61.6542 63.3225 61.6151 63.3098 61.5828 63.2834C61.5055 63.2222 61.4936 63.1108 61.5548 63.0343L62.4789 61.8841C62.5409 61.8084 62.6523 61.7957 62.7288 61.8569C62.8045 61.9181 62.8172 62.0295 62.756 62.106L61.8311 63.2571C61.7962 63.3004 61.7452 63.3225 61.6933 63.3225Z" fill="#9C005C"/>
</g>
<mask id="mask15_10_19" style="mask-type:luminance" maskUnits="userSpaceOnUse" x="61" y="61" width="6" height="3">
<path d="M61.5164 61.8182H66.0484V63.3229H61.5164V61.8182Z" fill="white"/>
</mask>
<g mask="url(#mask15_10_19)">
<path d="M63.3195 63.3227C63.2812 63.3227 63.2413 63.3099 63.209 63.2835C63.1325 63.2223 63.1206 63.111 63.1818 63.0345L64.1059 61.8842C64.1679 61.8086 64.2793 61.7958 64.355 61.857C64.4315 61.9182 64.4434 62.0296 64.3822 62.1061L63.4581 63.2572C63.4232 63.3006 63.3722 63.3227 63.3195 63.3227Z" fill="#9C005C"/>
</g>
<mask id="mask16_10_19" style="mask-type:luminance" maskUnits="userSpaceOnUse" x="61" y="61" width="6" height="3">
<path d="M61.5164 61.8182H66.0484V63.3229H61.5164V61.8182Z" fill="white"/>
</mask>
<g mask="url(#mask16_10_19)">
<path d="M64.9465 63.3227C64.9074 63.3227 64.8683 63.3099 64.836 63.2835C64.7595 63.2223 64.7467 63.111 64.8079 63.0345L65.7329 61.8842C65.7949 61.8086 65.9063 61.7958 65.9819 61.857C66.0585 61.9182 66.0704 62.0296 66.0091 62.1061L65.0851 63.2572C65.0494 63.3006 64.9983 63.3227 64.9465 63.3227Z" fill="#9C005C"/>
</g>
</g>
<path d="M54.43 68.0906C54.1478 69.3259 52.042 70.2857 49.4873 70.2857C46.9429 70.2857 44.8261 69.3259 44.5447 68.0906H54.43Z" fill="#E58191"/>
<path d="M89.0082 124.856V124.865H9.94165L9.95015 124.856C9.96035 124.771 10.212 123.453 10.6056 121.468C10.802 120.467 11.0451 119.278 11.3172 118.005L11.3546 117.818C11.5509 116.872 11.7567 115.871 11.982 114.86L12.0372 114.617C12.2812 113.475 12.5431 112.305 12.8049 111.155C13.0667 109.984 13.3388 108.842 13.6193 107.757C13.9373 106.492 14.2467 105.323 14.5553 104.294C15.0135 102.749 15.4446 101.542 15.8093 100.905C15.8186 100.905 15.8186 100.896 15.8186 100.896C16.259 100.156 17.5129 98.9211 19.197 97.4427C20.3864 96.4039 21.7806 95.2434 23.2683 94.055C24.7008 92.903 26.2072 91.7332 27.6865 90.5915C29.2685 89.3843 30.803 88.2239 32.1692 87.2037C34.9678 85.1167 37.0456 83.6094 37.2326 83.4691C37.2419 83.4606 37.2513 83.4606 37.2513 83.4606C37.2513 83.4606 39.4225 85.6778 43.1852 87.2037C44.9543 87.9247 47.0695 88.4857 49.4745 88.5988C51.8804 88.4857 53.9955 87.9247 55.7646 87.2037C59.5265 85.6778 61.6977 83.4606 61.6977 83.4606C61.6977 83.4606 63.8409 85.0045 66.7798 87.2037C68.015 88.121 69.382 89.1505 70.7949 90.2362C70.9446 90.3484 71.0942 90.47 71.254 90.5915C72.7324 91.7239 74.249 92.903 75.6807 94.055C77.1684 95.2528 78.5728 96.4132 79.7613 97.4427C81.4454 98.9211 82.6908 100.156 83.1304 100.896C83.1304 100.896 83.1304 100.905 83.1397 100.905C83.5044 101.542 83.9354 102.749 84.3937 104.294C84.7031 105.323 85.0117 106.492 85.3297 107.757C85.611 108.842 85.8822 109.984 86.1441 111.155C86.4059 112.305 86.6686 113.475 86.9118 114.617C87.1736 115.787 87.4167 116.929 87.6327 118.005C87.9039 119.278 88.147 120.467 88.3434 121.468C88.737 123.453 88.9895 124.771 89.0082 124.856Z" fill="#363B6B"/>
<mask id="mask17_10_19" style="mask-type:luminance" maskUnits="userSpaceOnUse" x="27" y="87" width="45" height="4">
<path d="M27.6862 87.2039H71.2536V90.5917H27.6862V87.2039Z" fill="white"/>
</mask>
<g mask="url(#mask17_10_19)">
<path d="M71.2536 90.5916H27.686C29.2681 89.3844 30.8026 88.2239 32.1688 87.2038H43.1848C44.9539 87.9239 47.069 88.4849 49.4741 88.598C51.8799 88.4849 53.9951 87.9239 55.7642 87.2038H66.7794C68.0146 88.1211 69.3816 89.1506 70.7945 90.2362C70.945 90.3484 71.0946 90.4691 71.2536 90.5916Z" fill="white"/>
</g>
<mask id="mask18_10_19" style="mask-type:luminance" maskUnits="userSpaceOnUse" x="19" y="94" width="61" height="5">
<path d="M19.1971 94.9831H79.7607V98.3717H19.1971V94.9831Z" fill="white"/>
</mask>
<g mask="url(#mask18_10_19)">
<path d="M79.7608 98.371H19.1965C20.3859 97.3322 21.7801 96.1718 23.2678 94.9833H75.6801C77.1679 96.1811 78.5723 97.3415 79.7608 98.371Z" fill="white"/>
</g>
<mask id="mask19_10_19" style="mask-type:luminance" maskUnits="userSpaceOnUse" x="14" y="100" width="71" height="5">
<path d="M14.5554 100.906H84.3944V104.293H14.5554V100.906Z" fill="white"/>
</mask>
<g mask="url(#mask19_10_19)">
<path d="M84.3941 104.293H14.5558C15.014 102.75 15.445 101.542 15.8097 100.906H83.1402C83.5049 101.542 83.9359 102.75 84.3941 104.293Z" fill="white"/>
</g>
<mask id="mask20_10_19" style="mask-type:luminance" maskUnits="userSpaceOnUse" x="12" y="107" width="75" height="5">
<path d="M12.8052 107.757H86.1439V111.154H12.8052V107.757Z" fill="white"/>
</mask>
<g mask="url(#mask20_10_19)">
<path d="M86.1444 111.154H12.8052C13.067 109.984 13.3382 108.842 13.6196 107.756H85.3299C85.6113 108.842 85.8817 109.984 86.1444 111.154Z" fill="white"/>
</g>
<mask id="mask21_10_19" style="mask-type:luminance" maskUnits="userSpaceOnUse" x="11" y="114" width="77" height="5">
<path d="M11.317 114.617H87.6324V118.005H11.317V114.617Z" fill="white"/>
</mask>
<g mask="url(#mask21_10_19)">
<path d="M87.6325 118.005H11.317L11.3544 117.817L11.9818 114.861L12.0379 114.617H86.9116C87.1734 115.787 87.4174 116.928 87.6325 118.005Z" fill="white"/>
</g>
<mask id="mask22_10_19" style="mask-type:luminance" maskUnits="userSpaceOnUse" x="9" y="121" width="81" height="4">
<path d="M9.95068 121.468H89.008V124.856H9.95068V121.468Z" fill="white"/>
</mask>
<g mask="url(#mask22_10_19)">
<path d="M89.008 124.856H9.94995C9.96015 124.771 10.2118 123.452 10.6054 121.468H88.3432C88.7368 123.452 88.9893 124.771 89.008 124.856Z" fill="white"/>
</g>
<path d="M37.2328 83.4693V124.865H9.94104C9.94104 124.865 13.8066 104.321 15.8189 100.896C17.8124 97.5271 36.6522 83.8995 37.2328 83.4693Z" fill="#597ED4"/>
<path d="M61.7303 83.4595V124.855H89.0221C89.0221 124.855 85.1566 104.311 83.1443 100.886C81.1508 97.5172 62.311 83.8905 61.7303 83.4595Z" fill="#597ED4"/>
<g opacity="0.100006">
<mask id="mask23_10_19" style="mask-type:luminance" maskUnits="userSpaceOnUse" x="9" y="83" width="62" height="42">
<path d="M9.95068 83.4549H70.805V124.86H9.95068V83.4549Z" fill="white"/>
</mask>
<g mask="url(#mask23_10_19)">
<path d="M70.8047 90.2304C63.9348 100.067 35.0805 98.673 31.6638 107.031C29.5393 112.244 23.9709 119.488 19.4686 124.86H9.95056C9.95056 124.86 10.2133 123.474 10.6341 121.36C11.8319 115.342 14.3406 103.427 15.8284 100.891C17.85 97.4659 37.2611 83.454 37.2611 83.454C37.2611 83.454 41.9504 88.2368 49.4842 88.5922C57.0181 88.2368 61.7074 83.454 61.7074 83.454C61.7074 83.454 63.5888 84.8116 66.2369 86.7865C67.604 87.8058 69.1759 88.9858 70.8047 90.2304Z" fill="black"/>
</g>
</g>
<g opacity="0.100006">
<mask id="mask24_10_19" style="mask-type:luminance" maskUnits="userSpaceOnUse" x="10" y="83" width="57" height="39">
<path d="M10.6339 83.4549H66.2372V121.36H10.6339V83.4549Z" fill="white"/>
</mask>
<g mask="url(#mask24_10_19)">
<path d="M66.2374 86.7868C52.3479 93.8437 26.1792 94.1336 22.5389 103.063C20.377 108.36 15.4633 115.276 10.6337 121.36C11.8315 115.342 14.3402 103.427 15.8288 100.891C17.8504 97.4661 37.2615 83.4543 37.2615 83.4543C37.2615 83.4543 41.95 88.2371 49.4838 88.5925C57.0186 88.2371 61.707 83.4543 61.707 83.4543C61.707 83.4543 63.5884 84.8119 66.2374 86.7868Z" fill="black"/>
</g>
</g>
<path d="M49.1341 124.865C48.9606 124.865 48.8093 124.736 48.7813 124.554C47.7101 117.477 42.0448 105.685 29.604 95.7447C18.1221 86.5701 22.383 65.1731 22.428 64.9572C22.468 64.7599 22.661 64.6358 22.8514 64.6741C23.0444 64.7166 23.1676 64.9121 23.1268 65.111C23.0835 65.3219 18.9161 86.2734 30.0418 95.164C42.6484 105.236 48.3961 117.232 49.4877 124.441C49.5183 124.641 49.384 124.829 49.1893 124.86C49.1706 124.864 49.1519 124.865 49.1341 124.865Z" fill="#292C47"/>
<path d="M49.8502 124.865C50.0236 124.865 50.1758 124.736 50.203 124.554C51.2742 117.477 56.9394 105.685 69.3803 95.7447C80.8622 86.5701 76.6013 65.1731 76.5571 64.9572C76.5163 64.7599 76.3233 64.6358 76.1337 64.6741C75.9399 64.7166 75.8166 64.9121 75.8574 65.111C75.9008 65.3219 80.069 86.2734 68.9425 95.164C56.3358 105.236 50.5881 117.232 49.4965 124.441C49.4659 124.641 49.6003 124.829 49.7949 124.86C49.8136 124.864 49.8323 124.865 49.8502 124.865Z" fill="#292C47"/>
</svg>
